<svg xmlns="http://www.w3.org/2000/svg" version="1.1" xmlns:xlink="http://www.w3.org/1999/xlink" xmlns:svgjs="http://svgjs.dev/svgjs" width="100" height="100"><svg width="100" height="100" viewBox="0 0 100 100" fill="none" xmlns="http://www.w3.org/2000/svg">
<path d="M81.7551 95.032H79.95C79.95 95.0128 79.9411 94.9936 79.9373 94.9756L79.8879 94.7547C79.8563 94.6095 79.8221 94.4655 79.7867 94.3227C79.7715 94.2555 79.755 94.1883 79.7386 94.1211C79.6917 93.9326 79.6424 93.7442 79.5917 93.5558L79.5765 93.5018C79.5208 93.2978 79.4626 93.0945 79.4018 92.8921L79.3411 92.6965C79.2993 92.5573 79.255 92.4193 79.2145 92.2812C79.1904 92.2056 79.1651 92.1312 79.1411 92.0568C79.0968 91.9236 79.0512 91.7904 79.0043 91.6584C78.9803 91.5888 78.955 91.5179 78.9309 91.4495C78.8718 91.2839 78.8111 91.1195 78.7486 90.9563C78.7347 90.9215 78.7233 90.8879 78.7094 90.8531C78.636 90.661 78.5587 90.4702 78.4802 90.2794C78.4524 90.2098 78.4233 90.1414 78.3942 90.073C78.341 89.953 78.2878 89.8209 78.2334 89.6961L78.1309 89.4645C78.0777 89.3445 78.0233 89.2245 77.9676 89.1044C77.9334 89.03 77.8979 88.9544 77.8625 88.88C77.7979 88.742 77.7359 88.6052 77.6637 88.4696C77.6372 88.418 77.6131 88.3652 77.5865 88.3123C77.4966 88.1335 77.4042 87.9523 77.3105 87.7795L77.184 87.555L77.0055 87.2298L76.8662 86.9898C76.808 86.889 76.7498 86.7882 76.6903 86.6873C76.6434 86.6057 76.5953 86.5241 76.5472 86.4473C76.4814 86.3381 76.4206 86.2313 76.3485 86.1233L76.1662 85.8304C76.0801 85.696 75.994 85.5604 75.9054 85.4272C75.8497 85.3432 75.794 85.2604 75.737 85.1776C75.6801 85.0947 75.618 84.9999 75.5573 84.9123C75.4965 84.8247 75.4307 84.7371 75.375 84.6507C75.3193 84.5643 75.2585 84.4863 75.199 84.4107C75.1395 84.3351 75.0724 84.2342 75.0079 84.1466L74.8294 83.9066C74.7028 83.747 74.5863 83.5874 74.4623 83.4265L74.2888 83.2069C74.2154 83.1145 74.1394 83.0233 74.0648 82.9321L73.8977 82.7305C73.8204 82.638 73.742 82.5468 73.6635 82.4544L73.4989 82.2648L73.2533 81.9864L73.1077 81.8255C72.8052 81.4931 72.495 81.1655 72.1773 80.8462L72.038 80.7058L71.7469 80.4214L71.6038 80.2846C71.5026 80.1873 71.4013 80.0913 71.2987 79.9965L71.1937 79.9005C70.8354 79.5705 70.4671 79.2488 70.0923 78.9404L69.9898 78.8552C69.8742 78.7592 69.7577 78.6643 69.6404 78.5707L69.5239 78.4771C69.3974 78.3811 69.2822 78.2863 69.1594 78.1915L69.0973 78.1447C68.6834 77.8278 68.2593 77.5194 67.8314 77.223L67.7719 77.181C67.6365 77.0886 67.501 76.9973 67.3643 76.9073L67.2744 76.8485C67.1352 76.7561 66.9947 76.6661 66.8541 76.5761L66.8301 76.5617C66.3642 76.2664 65.8895 75.9836 65.406 75.7132L65.387 75.7012C65.2338 75.616 65.0806 75.5332 64.9274 75.4503L64.8603 75.4143C64.0451 74.9783 63.2079 74.5782 62.3488 74.2142L62.2956 74.1914C62.069 74.0954 61.8412 74.003 61.6108 73.9118H66.1414C66.8795 73.9118 67.4782 73.1065 67.4782 72.1115C67.4782 71.1166 66.8795 70.3113 66.1414 70.3113H64.792C64.8755 70.1097 64.9679 69.8817 65.068 69.6248C66.344 68.8711 68.5897 67.2653 70.8177 64.3154L70.8354 64.2926C71.0042 64.0717 71.1701 63.8433 71.3329 63.6073L71.3658 63.5605C71.5279 63.3288 71.6899 63.09 71.8494 62.8404L71.8925 62.7744C71.9684 62.6544 72.0444 62.5343 72.1203 62.4143C72.1203 62.4143 72.1203 62.4047 72.1292 62.3987C72.2077 62.2787 72.2849 62.1467 72.3621 62.0183L72.4115 61.9355C72.4773 61.8251 72.5444 61.7122 72.609 61.5982C72.6216 61.5778 72.6343 61.5574 72.6457 61.5358C72.7204 61.4062 72.7951 61.2742 72.8685 61.141L72.9191 61.0486C72.9799 60.9381 73.0394 60.8265 73.0989 60.7137C73.1166 60.6825 73.1343 60.6501 73.1508 60.6177C73.2217 60.4821 73.2926 60.3453 73.3635 60.206L73.4128 60.1088C73.4685 59.996 73.5255 59.8808 73.5812 59.7656L73.6419 59.6456C73.7103 59.504 73.7774 59.36 73.8445 59.2147L73.8863 59.1223C73.942 59.0023 73.9964 58.8823 74.0508 58.7623L74.1154 58.6183C74.1787 58.473 74.242 58.3266 74.3027 58.179C74.3141 58.1526 74.3255 58.125 74.3357 58.0986C74.3926 57.963 74.4483 57.8249 74.504 57.6857L74.5673 57.5273C74.6192 57.3953 74.6711 57.2621 74.7218 57.1289L74.7598 57.0281C74.8192 56.8696 74.8775 56.7076 74.9357 56.548L74.9965 56.3776C75.042 56.2504 75.0863 56.1207 75.1307 55.9911C75.1471 55.9431 75.1636 55.8951 75.1788 55.8471C75.2345 55.6815 75.2902 55.5123 75.3446 55.3431C75.3623 55.2842 75.3813 55.223 75.399 55.1678L75.5256 54.773C75.5421 54.7154 75.5598 54.653 75.5763 54.6014C75.6282 54.4273 75.6801 54.2497 75.7294 54.0709C75.7459 54.0145 75.7611 53.9569 75.7763 53.8993C75.8142 53.7612 75.8522 53.6232 75.8889 53.4828C75.9054 53.4192 75.9218 53.3556 75.9396 53.292C75.9864 53.1072 76.0332 52.9211 76.0788 52.7327L76.1168 52.5755C76.1523 52.4255 76.1877 52.2743 76.2219 52.1218L76.2674 51.9178C76.3105 51.7222 76.3535 51.5266 76.394 51.3273C76.4029 51.2889 76.4105 51.2493 76.4181 51.2073C76.4535 51.0357 76.4877 50.8617 76.5206 50.6877C76.5345 50.6169 76.5472 50.546 76.5611 50.4752C76.5941 50.2964 76.6257 50.1152 76.6573 49.9364C76.6637 49.898 76.6713 49.8608 76.6776 49.8236C76.713 49.6123 76.7476 49.3995 76.7814 49.1851C76.7928 49.1131 76.8042 49.0411 76.8143 48.9679C76.8409 48.7938 76.8662 48.6186 76.8915 48.441L76.9143 48.2778C76.9447 48.0569 76.9738 47.8349 77.0017 47.6093C77.0105 47.5385 77.0181 47.4677 77.027 47.3957C77.0489 47.2164 77.0692 47.0364 77.0877 46.8556C77.0953 46.7908 77.1029 46.7272 77.1093 46.6624C77.1337 46.4303 77.1565 46.1963 77.1776 45.9603C77.1776 45.8943 77.189 45.8283 77.1941 45.7611C77.2106 45.5714 77.227 45.3806 77.2409 45.1886C77.2409 45.1178 77.2523 45.047 77.2574 44.9762C77.2751 44.7313 77.2916 44.4849 77.3068 44.2369C77.3068 44.1805 77.3068 44.1168 77.3156 44.0664C77.327 43.86 77.3384 43.6524 77.3473 43.4436C77.3473 43.368 77.3473 43.2924 77.3574 43.2167C77.3675 42.9587 77.3776 42.6995 77.3852 42.4366C77.3852 42.4006 77.3852 42.3634 77.3852 42.3262C77.392 42.0926 77.3971 41.8566 77.4004 41.6181C77.4004 41.5401 77.4004 41.4621 77.4004 41.3841C77.4004 41.1281 77.4004 40.8705 77.4004 40.6112V40.5512C77.4004 40.2752 77.4004 39.9955 77.4004 39.7111V39.4711C77.4004 39.231 77.3903 38.979 77.384 38.7294V38.5938C77.3751 38.3057 77.3637 38.0141 77.3523 37.7213C77.3523 37.6456 77.3447 37.5688 77.3422 37.4932C77.3312 37.2468 77.3186 36.9988 77.3042 36.7491C77.3042 36.6879 77.3042 36.6291 77.2941 36.5631C77.2764 36.2631 77.257 35.9606 77.2359 35.6558L77.2207 35.4434C77.2017 35.1889 77.1827 34.9333 77.1612 34.6753C77.1612 34.6009 77.1498 34.5265 77.1435 34.452C77.1169 34.14 77.0877 33.8244 77.0574 33.5075C77.0574 33.4475 77.0447 33.3875 77.0396 33.3263C77.0131 33.0563 76.984 32.7838 76.9548 32.509C76.946 32.4262 76.9371 32.3446 76.927 32.2618C76.8915 31.9353 76.8536 31.6077 76.8131 31.2753C76.8131 31.2345 76.8017 31.1936 76.7966 31.1552C76.7603 30.8576 76.7219 30.5584 76.6814 30.2575C76.6687 30.1687 76.6573 30.0799 76.6447 29.9911C76.5974 29.6503 76.5489 29.3066 76.4991 28.9602C71.4355 -5.21288 35.552 0.333005 35.552 0.333005L36.7015 7.67552L15 29.4102L15.9482 37.8029L24.169 42.6035C24.5355 41.7204 25.006 40.8793 25.5716 40.0964C30.8758 34.296 41.1663 29.7427 44.1121 28.7981C44.702 28.6097 45.0375 28.5149 45.0375 28.5149C30.9467 45.8043 32.5493 65.6115 33.1772 70.3329C32.524 70.4529 32.0189 71.2006 32.0189 72.1127C32.0189 73.1065 32.6176 73.913 33.3557 73.913H37.8864C30.3512 76.9032 24.37 82.5983 21.2485 89.7549C21.2448 89.7647 21.2406 89.7744 21.2359 89.7837C21.0055 90.315 20.7911 90.8539 20.5928 91.4003V91.4171C20.5396 91.5659 20.4877 91.7148 20.4371 91.8648C20.4181 91.9188 20.3991 91.9728 20.3814 92.028C20.3358 92.1624 20.2936 92.298 20.2548 92.4349C20.232 92.5045 20.2105 92.5753 20.189 92.6449C20.1484 92.7733 20.1092 92.9029 20.0712 93.0325L20.0029 93.2726C19.9674 93.3926 19.932 93.521 19.8991 93.6458C19.875 93.7346 19.8522 93.8222 19.8294 93.911C19.7991 94.0311 19.7674 94.1511 19.7383 94.2711C19.7092 94.3911 19.6813 94.5111 19.6535 94.6383C19.6256 94.7655 19.5902 94.9144 19.5598 95.0536H17.7534C17.406 95.0463 17.0606 95.1049 16.7374 95.2259C16.4142 95.347 16.1198 95.5279 15.8715 95.7583C15.6231 95.9886 15.4257 96.2637 15.291 96.5674C15.1562 96.871 15.0868 97.1971 15.0868 97.5265C15.0868 97.8559 15.1562 98.182 15.291 98.4856C15.4257 98.7893 15.6231 99.0643 15.8715 99.2947C16.1198 99.525 16.4142 99.706 16.7374 99.827C17.0606 99.9481 17.406 100.007 17.7534 99.9994H81.7779C82.1253 100.007 82.4707 99.9481 82.7939 99.827C83.117 99.706 83.4115 99.525 83.6599 99.2947C83.9082 99.0643 84.1056 98.7893 84.2403 98.4856C84.375 98.182 84.4444 97.8559 84.4444 97.5265C84.4444 97.1971 84.375 96.871 84.2403 96.5674C84.1056 96.2637 83.9082 95.9886 83.6599 95.7583C83.4115 95.5279 83.117 95.347 82.7939 95.2259C82.4707 95.1049 82.1253 95.0463 81.7779 95.0536L81.7551 95.032Z" fill="#595653"></path>
</svg><style>@media (prefers-color-scheme: light) { :root { filter: none; } }
@media (prefers-color-scheme: dark) { :root { filter: none; } }
</style></svg>