<svg xmlns="http://www.w3.org/2000/svg" xml:space="preserve" viewBox="0 0 660 660"><circle cx="330" cy="330" r="330" fill="#FBCE51"/><path fill="#F8A90B" d="m472.5 613.1-.4-.8 1.5-1-4.2-8.4-.3 2.8-1.9 8.2.2.5 1.6-.5.4.8-4.6 2.3-.4-.8 1.3-.9-5.1-10.4-1.5.5-.4-.8 4.7-2.3.4.8-1.4.9 4.2 8.5.3-2.6 2-8.4-.3-.6-1.7.6-.4-.8 4.7-2.3.4.8-1.4.9 5.1 10.4 1.4-.4.4.8-4.6 2.2zM461.2 618.3c-.5.4-.9.6-1.2.8-.4.2-.7.4-1.1.5-1.4.6-2.6.9-3.6.8-1-.2-1.7-.6-2.1-1.7-.4-.9-.4-1.7-.1-2.6.3-.8.9-1.5 1.7-2-1 .4-2 .5-2.8.3-.8-.3-1.4-.9-1.8-1.7-.6-1.3-.6-2.3-.1-3.3s1.5-1.8 3.1-2.6c.7-.3 1.4-.5 1.9-.6.6-.2 1.1-.2 1.4-.2.3 0 .5-.1.6 0l1 3.1-.8.4-1.5-2c-.7-.1-1.5.1-2.5.6-.8.3-1.2.8-1.4 1.5-.2.7-.1 1.4.3 2.3.3.7.8 1.2 1.4 1.5.6.3 1.5.2 2.5-.2l1.2-.5.5.9-1 .4c-.5.2-.8.5-1.3.9-.3.4-.5.9-.7 1.3 0 .5 0 1.1.3 1.7.3.8.8 1.2 1.4 1.4.6.2 1.2 0 2-.3.5-.3.9-.5 1.2-.8s.5-.6.5-.8l-.4-1.7 1.1-.5 1.3 2.6c-.2-.1-.5.1-1 .5zM445.9 623.8l1.5-.3.4.9-2.4.9c-.4.2-.9.4-1.5.6-.6.3-.9.5-1.2.6-1.6.6-2.9.8-3.7.5-.9-.2-1.5-.8-1.9-1.8-.3-.8-.4-1.6-.1-2.4.2-.8.8-1.4 1.5-1.8-1.1.4-2.1.6-2.9.2-.8-.3-1.5-.9-1.8-1.9-.5-1.2-.4-2.2.2-3.3.6-1.1 1.8-2 3.7-2.7.5-.2.8-.3 1.2-.4.9-.3 1.5-.5 1.7-.6l2.3-.9.3.9-1.4.7 4.1 10.8zm-7.9-9.7c-1.2.5-1.9 1-2.3 1.7-.4.7-.3 1.5 0 2.3.4.9.8 1.4 1.5 1.7.6.3 1.5.2 2.5-.2 1.2-.5 1.9-.7 2.3-.9l-2-5.2c-.4 0-1 .3-2 .6zm3.3 6.1-.9.4c-.8.3-1.3.8-1.6 1.4-.3.6-.3 1.4.1 2.2.3.8.8 1.3 1.3 1.6.5.2 1.4.2 2.4-.3.5-.2.8-.4 1.3-.6l.4-.2-1.9-4.9c-.2.1-.6.2-1.1.4zM431.1 630.5l-1.9.7-8.4-10.8-1.2.2-.3-.9 4.7-1.6.3.9-1.4.6 1.7 2.4 5.2-1.8v-2.9l-1.6.3-.3-.9 4.2-1.4.3.9-1.1.5-.2 13.8zm-2-2.5 1 1.4-.1-1.8-.2-6.3-4.5 1.5 3.8 5.2zM416.5 621.2c1.1.3 2 .8 2.8 1.8.8.9 1.4 2 1.7 3.4.4 1.3.4 2.6.2 3.8-.2 1.3-.8 2.2-1.6 3-.8.8-1.8 1.4-3 1.8-.9.3-2.1.5-3.4.5h-.6l-.8-3.3 1.2-.4 1.2 2.1c.2.1.6.2 1 .2s1-.2 1.6-.3c.8-.2 1.4-.6 1.9-1.2s.8-1.4.8-2.3-.1-2.1-.4-3.2c-.3-1.1-.8-2.1-1.4-2.9-.6-.8-1.2-1.5-2-1.8-.7-.3-1.6-.4-2.5-.2-.6.1-1.1.4-1.4.5-.2.1-.5.5-.7.7l-.2 2-1.2.2-.3-2.6c.2 0 .6-.3 1.1-.5.4-.3.7-.5 1.2-.7.4-.2.9-.4 1.5-.5 1-.3 2.1-.4 3.3-.1zM402.4 635.7c-.4 1-.9 2-1.6 2.6-.8.7-1.6 1.2-2.6 1.3-1.2.3-2.3.2-3.2-.1-.9-.3-1.8-1-2.5-1.9-.7-.9-1.2-2-1.4-3.3-.3-1.5-.4-2.8-.1-4 .2-1.3.8-2.2 1.5-3.1.7-.8 1.7-1.3 2.8-1.6 1.2-.3 2.3-.3 3.3.1s1.8 1 2.5 1.8c.7.9 1.2 2 1.4 3.3l2.9-.6-1.2-5.3-1.6.2-.2-.9 5-1.2.2.9-1.5.5 2.7 11.3 1.5-.1.2.9-4.9 1.1-.2-.9 1.5-.5-1.1-4.9-2.9.7c-.1 1.5-.2 2.7-.5 3.7zm-2.1.9c.4-1.2.4-2.7 0-4.8-.4-1.7-1.1-3.1-2-4-.9-.8-1.9-1.2-3.2-1-1.2.3-1.9 1-2.3 2.1-.4 1.1-.3 2.8.1 4.8.4 1.7 1 3.1 1.9 4 .9.9 1.9 1.2 3 .9 1.3-.1 2.1-.8 2.5-2zM381.1 634.9c-.6-.6-1.4-1.3-2.3-2.2-.6-.7-1-1.2-1.3-1.5-.3-.3-.6-.5-.8-.5l-.7-.1-.2-.9 2.2-.4c.3 0 .7.2 1.1.6.4.4 1 1.1 1.7 2 .8 1 1.5 1.7 2 2.3.5.5.9.8 1.3.7l1.2-.2-.9-5.2-1.6.1-.2-.9 5-.9.2 1-1.4.4 2 11.4h1.5l.2 1-4.9.8-.1-1.1 1.5-.5-.9-5.3-1.6.3-2.8 6 1.6-.1.2 1-4.5.8-.2-1 1.4-.4 3.1-6.1c-.6-.3-1.2-.6-1.8-1.1zM372.8 630.7c1 .5 1.7 1.2 2.3 2.2.6 1 .9 2.2 1.2 3.6.2 1.4.1 2.7-.3 3.9-.4 1.1-1.1 2.1-1.9 2.8-.9.7-1.8 1.1-3.1 1.3-1.9.3-3.5-.1-4.7-1.2-1.1-1.1-1.9-2.7-2.2-4.9-.2-1.5-.1-2.8.3-3.9.4-1.2 1.1-2.1 1.9-2.9.9-.7 1.9-1.1 3.1-1.3 1.3-.1 2.4 0 3.4.4zm.7 10.8c.5-1.2.7-2.7.5-4.8-.2-1.9-.8-3.3-1.6-4.3s-1.9-1.4-3-1.2c-1.2.2-2 .8-2.6 2-.5 1.2-.7 2.8-.5 4.8.2 1.9.8 3.3 1.6 4.2.8.9 1.8 1.4 3 1.2 1.2 0 2.1-.7 2.6-1.9zM361.4 644.3l1.5.1.1.9-2.5.2c-.4 0-1 .2-1.6.2-.6.1-1.1.1-1.3.2-1.7.2-3 0-3.7-.5-.8-.5-1.2-1.2-1.3-2.3-.1-.8.1-1.7.5-2.3.4-.6 1.1-1.1 2-1.4-1.1.1-2.1-.1-2.9-.6-.8-.5-1.2-1.3-1.2-2.3-.1-1.2.2-2.3 1.1-3.2.9-.9 2.2-1.4 4.3-1.6.4-.1.8-.1 1.3 0 .9-.1 1.6-.1 1.7 0l2.5-.2.1.9-1.5.3.9 11.6zm-5-11.4c-1.2.1-2.2.4-2.6 1-.6.6-.8 1.3-.6 2.3.1.9.4 1.6.9 2 .5.3 1.4.6 2.4.4 1.2-.1 2.1-.2 2.4-.3l-.5-5.5c-.3-.1-.9-.1-2 .1zm1.6 6.7-1.1.1c-.8.1-1.5.4-1.9.9-.3.5-.5 1.3-.5 2.1.1.8.3 1.5.8 1.9.5.3 1.3.5 2.3.4.4-.1.9-.1 1.4-.2l.4-.1-.4-5.2c-.2 0-.5 0-1 .1zM332 647l-.1-.9 1.6-.3-.4-11.6-1.8-.2-.1-.9 5.2-.1.1.9-1.6.2.3 11.7 5.9-.1-.3-11.7-1.7-.1-.1-.9 5.2-.1.1.9-1.5.2.4 11.6 1.6.2.1.9-12.9.3zM327.6 633.8c.8.6 1.6 1.4 2 2.6.4 1 .6 2.3.6 3.7-.1 1.4-.3 2.7-.9 3.7-.6 1.1-1.3 1.9-2.3 2.4-1 .6-2.1.9-3.2.9-1.9 0-3.4-.7-4.4-1.9-1-1.3-1.5-2.9-1.5-5.2 0-1.4.3-2.8.9-3.8.6-1.1 1.3-2 2.3-2.5 1-.6 2.1-.9 3.3-.9 1.3.1 2.4.4 3.2 1zm-.7 10.8c.7-1 1.1-2.6 1.1-4.6 0-1.8-.3-3.3-1-4.4-.6-1.1-1.6-1.7-2.8-1.7s-2.2.5-2.9 1.6c-.7 1-1.1 2.7-1.2 4.7 0 1.9.2 3.3 1 4.4.6 1.1 1.6 1.6 2.8 1.7 1.3-.2 2.2-.7 3-1.7zM312.1 637.7c.4-1.7.8-2.9 1.4-3.8.3-.4.6-.8 1-1 .4-.2.8-.3 1.2-.3.6.1 1 .1 1.3.1v1.5c-.3-.1-.8-.1-1.4-.2-.2-.1-.4 0-.6.1-.2.1-.4.3-.5.5-1.1 1.4-1.7 4.4-2 8.9l-.1 1.5 2.1.4v.9l-10.8-.7v-.9l1.8-.1.8-11.6-1.9-.3v-.9l5.7.4v.9l-2 .1-.8 11.6 3.8.2.1-1.7c.4-2 .6-4 .9-5.6zM300.2 644.4l1.5.4-.1.9-9.5-1 .1-2.9 1.1.1.3 1.8 4.6.6.6-5.2-3.1-.3-.4 1.5-1-.1.4-4.3 1 .1.1 1.6 3 .4.6-5.6-5.3-.4-1.2 2.2-1.1-.5.9-3.2 10.3 1.1-.1.9h-1.5l-1.2 11.9zM284.8 642.7l3.2.3 1.2-3.8 1.2.2-1 4.9-11.5-1.8.5-5 1.2.2.1 4 3.2.6 1.7-11.7-2.6-.6.1-.9 7 1.1-.1.9-2.4-.1-1.8 11.7zM271.5 633.5l.9.1c.3-.1.7-.5 1.1-1 .3-.5.9-1.2 1.4-2 .5-.8 1-1.4 1.3-1.8.3-.4.6-.6.7-.5l2.5.5-.1.9-.7.1c-.2 0-.4.1-.7.4-.3.2-.7.7-1.2 1.3-.6.8-1.1 1.3-1.5 1.7-.4.5-.8.7-1.3.9.8.4 1.4 1 1.7 1.7.3.7.4 1.5.2 2.5-.3 1.5-.9 2.4-1.9 2.8-1 .3-2.3.4-3.9.1-.4-.1-.8-.2-1.3-.4-.6-.2-1-.3-1.3-.4l-2.6-.5.1-.9 1.6.1 2.2-11.4-1.7-.6.1-.9 5.4 1-.1.9-1.8-.2-.9 4.9 1.8.7zm-2.6 6.5c.6.2 1 .3 1.4.4 1 .2 1.7.1 2.3-.2.6-.3 1-1 1.2-2 .2-1 .1-1.8-.4-2.4-.4-.6-1.1-1-2-1.3-1-.2-1.6-.3-2-.3l-1.1 5.6.6.2zM258.4 637.7l3.2.7 1.5-3.7 1.2.3-1.5 4.8-11.3-2.7.9-4.9 1.1.3-.4 4 3.1.8 2.7-11.5-2.5-.8.2-.9 7 1.7-.2.9-2.5-.4-2.5 11.4zM246.4 622c.8.8 1.2 1.9 1.4 3 .2 1.2.1 2.5-.3 3.9-.4 1.3-1.1 2.5-1.9 3.3-.9.9-1.9 1.4-3 1.7-1.2.3-2.3.2-3.5-.1-1-.3-1.9-.7-3.2-1.4l-.5-.2 1.2-3.2 1.2.3-.2 2.4c.1.2.4.4.8.6.4.2.9.4 1.5.6.8.2 1.5.2 2.2 0 .7-.2 1.4-.7 1.9-1.5.6-.8 1.1-1.7 1.4-2.9.3-1.1.5-2.2.5-3.2s-.3-1.9-.7-2.6c-.4-.7-1.1-1.2-2.1-1.5-.7-.2-1.1-.3-1.5-.3-.4 0-.7.1-1 .2l-1.2 1.5-1.1-.5 1.2-2.4c.3.1.7.1 1.2.1h1.3c.4 0 1 .2 1.5.3 1 .4 2.1 1 2.9 1.9zM227.9 630l.3-.8 1.8.4 3.1-8.8-2.2 1.7-7.2 4.5-.1.5 1.5.7-.3.8-4.8-1.7.3-.8 1.5.3 3.8-11-1.4-.7.3-.8 4.9 1.7-.3.8-1.6-.3-3.1 8.9 2.1-1.6 7.4-4.5.2-.7-1.6-.7.3-.8 4.9 1.7-.3.8-1.5-.3-3.8 11 1.3.7-.3.8-5.2-1.8zM208.8 623l1.7-4.7 1.2.4-.9 3.7 3.7 1.6 4.4-11-3-1.4.3-.8 6.8 2.6-.3.8-2-.5-4.2 10.8 1.8 1-.3.8-9.2-3.3zM206.3 620.7l1.2.8-.3.8-4.6-2.1.3-.8 1.5.4 2-4.5-6-2.6-2 4.5 1.3.9-.3.8-4.5-2 .3-.8 1.4.4 4.7-10.7-1.3-.8.3-.8 4.5 2-.3.8-1.5-.5-2.3 5 6 2.6 2.3-5-1.4-.8.3-.8 4.7 2.1-.3.8-1.4-.5-4.6 10.8zM188.6 613.8l-1.8-.9 1.7-13.6-.9-.7.4-.8 4.4 2.2-.4.8-1.5-.5-.5 2.8 4.9 2.4 2-2.1-1.4-.9.4-.8 4 2-.4.8-1.1-.4-9.8 9.7zm.2-3.2-.3 1.6 1.2-1.3 4.4-4.5-4.2-2.1-1.1 6.3zM181.3 600c1.1-1.3 2-2.3 2.9-2.9.5-.3.8-.4 1.2-.5.4 0 .8.1 1.2.3.5.2.9.5 1.1.7l-.6 1.4c-.3-.2-.6-.4-1.2-.7-.2-.1-.4-.2-.6-.2-.2 0-.4.1-.7.2-1.5.8-3.4 3.3-5.7 7.2l-.8 1.3 1.8 1.3-.4.8-9.4-5.3.4-.8 1.7.6 5.7-10.2-1.6-1 .4-.8 5.1 2.8-.4.8-1.7-.8-5.7 10.1 3.3 1.8.8-1.5c1-1.6 2.1-3.3 3.2-4.6zM153.2 593.3l.5-.8 1.6.7 6.2-9.8-1.3-1.1.5-.8 4.6 3-.5.8-1.5-.7-6.2 9.8 1.3 1.1-.5.8-4.7-3zm12.8 1.6c-1.3-.9-2.1-1.8-2.4-2.8-.3-1-.2-2.1.6-3.2.7-1.2 1.7-1.9 2.9-2.1 1.2-.2 2.4.1 3.7.9.2.1.4.2.5.3.2.1.3.3.5.3.6.5 1.1.8 1.5 1.1l2.2 1.4-.5.8-1.4-.7-6.2 9.8 1.2 1-.5.8-4.5-2.8.5-.8 1.7.8 2.3-3.7-2.1-1.1zm5.4-5.5c-.2-.1-.4-.3-.9-.5-.9-.5-1.7-.8-2.5-.6-.8.2-1.4.7-2.1 1.7-.5.9-.7 1.6-.5 2.4.2.8.7 1.4 1.6 2l1.7 1.1 3.4-5.3c-.3-.5-.5-.6-.7-.8zM146.8 587.3l1 1.1-.5.8-4.1-3 .5-.8 1.4.8 3-4.1-5.3-3.9-3 4.1 1 1.1-.5.8-4-3 .5-.8 1.3.7 6.9-9.4-1.1-1 .5-.8 4.1 3-.5.8-1.3-.8-3.2 4.3 5.3 3.9 3.2-4.3-1.2-1.1.5-.8 4.2 3.1-.5.8-1.3-.8-6.9 9.3zM130.9 576.8l-1.6-1.3 4.6-12.9-.8-.9.6-.7 3.9 3.1-.6.8-1.3-.9-1 2.7 4.3 3.5 2.5-1.6-1.1-1.1.6-.7 3.4 2.8-.6.7-1.1-.6-11.8 7.1zm1-3-.6 1.6 1.4-1.1 5.2-3.5-3.7-3-2.3 6zM119.8 565.8l1.3 1.6-.6.7-3.7-3.4 3.8-8 1.2-2.1-2 1.4-7.6 4.4-3.6-3.3.6-.7 1.7 1.3 6.8-9.5-1.1-1.3.6-.7 3.9 3.7-.6.7-1.4-1-5.1 6.7-2.2 2.9 2.4-1.4 9-5 .9.8-3.8 8.6-1.6 3.3 2.7-2.4 6.3-5.6-1.3-1.4.6-.7 3.6 3.3-.6.7-1.3-1-8.9 7.4z"/><path fill="#F8A90B" d="m103.5 551.9-1.4-1.5 6.1-12.2-.7-1 .7-.6 3.4 3.6-.7.6-1.3-1-1.4 2.6 3.8 3.9 2.6-1.3-1-1.3.7-.6 3.1 3.2-.7.6-.9-.7-12.3 5.7zm1.4-2.9-.8 1.5 1.5-.8 5.7-2.9-3.4-3.4-3 5.6zM97.3 543.5l.8 1.2-.7.6-1.6-1.9c-.3-.3-.6-.7-1-1-.5-.4-1-1-1.4-1.4-1.2-1.3-1.8-2.5-1.8-3.5s.5-1.9 1.5-2.9c.8-.6 1.5-1.1 2.4-1.2.9-.2 1.7 0 2.6.3.8.3 1.6.9 2.3 1.7.2.3.5.5.7.8.2.3.4.5.5.5l3.1-2.7-1.6-2.1.7-.6 4.1 4.6-.7.6-1.2-1-8.7 8zm2.3-7.2c-.6-.7-1.4-1.1-2.2-1.2-.8-.1-1.8.3-2.8 1.3-.8.7-1.2 1.4-1.2 2.1 0 .7.4 1.5 1.1 2.3.2.3.6.6.9.8.2.1.3.3.4.4l4.9-4.4c-.1-.2-.5-.7-1.1-1.3zM97.6 525.6c.2 1.2 0 2.2-.6 3.3-.5 1.1-1.4 2.1-2.4 3-1.1.9-2.2 1.4-3.4 1.6-1.2.2-2.4.2-3.5-.3-1.1-.4-2.1-1.1-2.9-2.1-.6-.8-1.3-1.8-1.9-2.9l-.3-.6 2.7-2 .8.9-1.5 1.8c0 .2.1.5.2 1 .2.4.5.8.9 1.4.5.7 1.2 1 1.9 1.2.8.2 1.6.1 2.5-.1.9-.3 1.9-.8 2.8-1.6.9-.8 1.6-1.5 2.2-2.4.5-.9.9-1.7.9-2.5s-.3-1.6-.8-2.4c-.4-.5-.8-.8-1.1-1.1-.3-.3-.6-.4-.9-.3l-1.9.6-.7-1 2.3-1.3c.2.1.5.4.9.8.4.3.8.5 1.1.8.3.3.6.7 1.1 1.1 1 .9 1.5 2 1.6 3.1zM67.1 507.1l.7-.5L69 508l7.8-5.2h-2.7l-8.4-.8-.4.3.7 1.5-.7.5-2.8-4.3.7-.5 1 1.1 9.7-6.5-.7-1.4.7-.5 2.9 4.3-.7.5-1.1-1.3-7.9 5.3h2.6l8.6.9.6-.3-.8-1.5.7-.5 2.9 4.3-.7.5-1-1.2-9.7 6.5.6 1.4-.7.5-3.1-4.5zM60.5 496.4c-.4-.4-.7-.8-1-1.1-.3-.3-.4-.6-.7-.9-.8-1.3-1.2-2.5-1.2-3.5s.5-1.7 1.4-2.3c.8-.5 1.7-.7 2.6-.4.9.2 1.5.7 2.2 1.4-.6-1-.8-1.9-.6-2.8.2-.9.7-1.5 1.5-2.1 1.1-.7 2.3-.9 3.3-.5s2 1.3 3 2.8c.3.6.7 1.2.9 1.8.2.6.3 1 .5 1.3s.2.6.1.6l-2.9 1.4-.5-.8 1.8-1.7c0-.7-.3-1.5-.9-2.4-.4-.7-1-1.2-1.6-1.2-.6-.1-1.5.1-2.3.6-.6.4-1.1.9-1.3 1.6-.2.7 0 1.5.6 2.4l.7 1.1-.9.6-.6-1c-.3-.5-.6-.8-1-1.1-.4-.3-.9-.4-1.4-.5-.5 0-1.1.1-1.7.5-.7.4-1.1.9-1.2 1.5-.1.6.1 1.2.5 2 .3.5.6.9.9 1.1.3.3.6.4.8.3l1.7-.6.7 1-2.4 1.6c-.3 0-.5-.2-1-.7zM53.2 482l.5 1.5-.8.4-1.2-2.3c-.2-.4-.5-.8-.9-1.3s-.6-.9-.7-1.1c-.8-1.5-1.1-2.7-1.1-3.6.1-.9.6-1.6 1.6-2.1.8-.4 1.6-.6 2.3-.4.8.1 1.5.6 2 1.3-.5-1.1-.8-2-.5-2.9.2-.9.7-1.5 1.7-2 1.1-.6 2.2-.7 3.3-.2 1.1.4 2.1 1.5 3.2 3.4l.6 1.2c.4.8.6 1.4.8 1.5l1.2 2.1-.8.4-.9-1.3-10.3 5.4zm3-5.1-.5-.9c-.4-.7-.9-1.3-1.6-1.4-.7-.2-1.3 0-2.1.3-.7.4-1.3.9-1.4 1.5-.2.6.1 1.3.5 2.3.2.4.5.8.7 1.2l.2.4 4.6-2.4c0-.1-.2-.5-.4-1zm5.6-3.9c-.6-1.1-1.3-1.8-2-2.1-.7-.3-1.5-.2-2.3.3-.8.5-1.4 1-1.5 1.6-.1.7 0 1.4.6 2.4.6 1.1.9 1.8 1.2 2.1l4.9-2.7c-.2-.1-.4-.7-.9-1.6zM44.7 468.2l-.9-1.9 9.6-9.6-.3-1.1.8-.4 2.2 4.5-.8.4-.9-1.4-2.2 2 2.4 4.9 2.9-.5-.5-1.6.8-.4 1.9 4-.8.4-.7-1-13.5 1.7zm2.1-2.4-1.3 1.2 1.7-.4 6.2-.9-2.1-4.3-4.5 4.4zM52 452.4c-.2 1.1-.7 2.2-1.4 3-.7.8-1.9 1.6-3.1 2.2-1.3.6-2.5.7-3.7.6-1.2-.1-2.3-.5-3.2-1.2-.9-.7-1.7-1.7-2.2-2.8-.4-.9-.7-2-.9-3.3l-.1-.6 3.2-1.2.5 1.2-2 1.4c-.1.2-.1.6 0 1s.2 1 .5 1.6c.3.7.8 1.3 1.5 1.7.7.4 1.5.6 2.4.5.9-.1 2-.3 3.2-.8 1-.4 2-1 2.8-1.7.8-.7 1.3-1.4 1.5-2.2.3-.8.2-1.7-.1-2.5-.3-.6-.5-1.1-.8-1.3-.2-.3-.5-.5-.8-.6h-2l-.3-1.1 2.6-.6c.1.2.3.6.7 1 .3.4.6.7.8 1 .2.4.5.8.7 1.4.2 1.1.4 2.2.2 3.3zM35.8 440.2c-1.1-.2-2.1-.7-2.8-1.3-.8-.6-1.3-1.5-1.7-2.5-.4-1.1-.5-2.2-.3-3.2.3-1 .7-1.9 1.5-2.6.8-.8 1.8-1.4 3-1.8 1.5-.5 2.7-.7 3.9-.7 1.2.1 2.3.5 3.2 1.2.8.6 1.5 1.5 2 2.6.4 1.1.5 2.3.3 3.3-.2 1.1-.7 1.9-1.6 2.7-.8.8-1.8 1.4-3.1 1.9l1.1 2.8 5.1-1.9-.4-1.6.9-.3 1.8 4.9-.7.3-.7-1.4-10.9 4 .3 1.5-.9.3-1.8-4.8.9-.3.7 1.4 4.8-1.8-1.1-2.8c-1.2.3-2.4.4-3.5.1zm-1.1-1.8c1.2.3 2.8.1 4.8-.7 1.7-.7 2.9-1.5 3.7-2.5.8-1 1-2.1.6-3.2s-1.3-1.8-2.4-2.1c-1.1-.3-2.7 0-4.7.7-1.7.7-2.9 1.5-3.7 2.4-.8 1-.9 2-.5 3.1.2 1.3 1.1 2 2.2 2.3zM34 419.2c.5-.7 1.1-1.5 2-2.5.6-.7 1-1.2 1.3-1.6.3-.3.4-.6.4-.8v-.7l.9-.3.7 2.2c.1.2-.1.7-.4 1.1-.3.5-.9 1.2-1.8 2-.9 1-1.6 1.7-2 2.3-.5.6-.6 1.1-.5 1.4l.3 1.1 5.1-1.6-.3-1.7.9-.3 1.5 4.9-.9.3-.6-1.4-11.1 3.4.2 1.5-.9.3-1.5-4.8.9-.3.6 1.4 5.1-1.6-.5-1.6-6.3-2 .3 1.6-.9.3-1.4-4.4.9-.3.7 1.3 6.4 2.2c.2-.2.5-.8.9-1.4zM37 410.3c-.4 1-1 1.9-1.9 2.5-.9.7-2.1 1.3-3.4 1.6-1.4.3-2.7.4-3.8.2-1.2-.2-2.1-.8-3-1.5-.8-.7-1.4-1.7-1.7-2.9-.5-1.9-.3-3.4.7-4.8 1-1.3 2.4-2.2 4.5-2.8 1.4-.3 2.8-.4 3.9-.2 1.2.2 2.2.8 3.1 1.5.8.7 1.4 1.7 1.7 2.9.3 1.4.3 2.5-.1 3.5zm-10.6 2.1c1.2.4 2.8.3 4.7-.2 1.8-.4 3.2-1.2 4-2.1.9-.9 1.2-2 .8-3.1-.3-1.2-1.1-1.9-2.3-2.4-1.2-.4-2.9-.4-4.8.1-1.8.4-3.2 1.2-4 2.1-.9.9-1.1 1.9-.8 3.1.5 1.3 1.3 2.1 2.4 2.5zM22.2 400.7l.1 1.6-.9.2-.6-2.5c-.1-.4-.2-1-.4-1.5s-.3-1-.4-1.3c-.4-1.7-.3-2.9 0-3.8.3-.8 1.1-1.3 2.1-1.6.9-.2 1.6-.1 2.4.2.7.4 1.3 1 1.7 1.8-.3-1.2-.3-2.1.2-2.9.4-.8 1.2-1.3 2.1-1.5 1.2-.3 2.4-.1 3.3.7.9.7 1.7 2.1 2.1 4 .1.4.2.9.2 1.3.2 1 .3 1.5.4 1.7l.6 2.4-.9.2-.5-1.5-11.5 2.5zm4.2-4-.2-1c-.2-.9-.5-1.5-1.1-1.8-.5-.3-1.3-.5-2.2-.2-.9.2-1.5.5-1.7 1.1-.2.5-.4 1.3-.1 2.4.1.4.2.9.4 1.3l.1.3 5.1-1.1c-.1-.2-.2-.5-.3-1zm6.5-2.4c-.3-1.2-.7-2-1.4-2.5-.6-.5-1.4-.6-2.4-.3-1 .2-1.6.6-1.8 1.1-.3.5-.4 1.4-.2 2.5.3 1.2.5 2.1.6 2.4l5.4-1.2c.1-.3 0-.9-.2-2zM15.7 372l1-.2.5 1.6 11.5-1.8v-1.7l1-.2.8 5.2-1 .2-.4-1.5-11.5 1.8.9 6 11.6-1.8v-1.7l1-.2.7 5.2-1 .2-.4-1.4-11.5 1.8v1.6l-1 .2-2.2-13.3zM28.4 365.9c-.4.9-1.3 1.7-2.2 2.3-1 .6-2.2.9-3.6 1.1-1.5.1-2.7 0-3.9-.4-1.1-.4-2.1-1.1-2.7-2-.7-.9-1.1-1.9-1.2-3.1-.2-1.9.2-3.5 1.3-4.6 1.1-1.1 2.7-1.8 4.9-2 1.5-.1 2.7 0 3.9.4 1.1.4 2.1 1.1 2.8 2 .7.9 1.1 1.9 1.2 3.1.1 1.2-.1 2.3-.5 3.2zm-10.9.6c1.2.6 2.7.7 4.7.6 1.9-.2 3.2-.7 4.3-1.5 1-.7 1.5-1.7 1.3-3-.1-1.1-.8-2-1.9-2.7-1.2-.6-2.8-.7-4.7-.6-1.9.2-3.3.6-4.3 1.5-1 .7-1.4 1.8-1.2 3 0 1.3.7 2.2 1.8 2.7zM22.4 351.1c1.7.1 3 .4 3.9.9.4.2.8.5 1 .8.2.4.3.7.4 1.1v1.3l-1.5.2V354c0-.2-.1-.4-.3-.6-.2-.1-.3-.3-.6-.5-1.5-.8-4.6-1.1-9.2-.8l-1.5.1-.1 2.1-.9.1-.7-10.8.9-.1.4 1.7 11.6-.8.1-1.8.9-.1.4 5.7-.9.1-.3-1.9-11.6.7.2 3.8 1.6-.1c2.6.1 4.6.1 6.2.3zM14.3 340.1l-.2 1.6-.9.1-.2-9.5 2.9-.3v1l-1.8.5v4.7l5.2-.1-.1-3.1-1.6-.2v-1l4.3-.1v1l-1.6.3v3.1l5.5-.1-.3-5.3-2.4-.9.3-1.1 3.2.5.2 10.3-.9.1-.2-1.6-11.4.1zM14.1 324.6l.1 3.2 3.9.7v1.2l-5-.4.3-11.6 5-.1v1.2l-3.9.6-.1 3.2 11.8.2.2-2.7h.9l-.2 7.1h-.9l-.1-2.5-12-.1zM21.5 310.2v.9c.2.4.5.7 1.2 1 .5.3 1.2.7 2.1 1.2.9.4 1.5.8 2 1 .4.2.7.5.6.7l-.2 2.5h-.9l-.1-.7c0-.2-.2-.4-.4-.6-.4-.2-.8-.5-1.5-1-.8-.4-1.4-.9-1.9-1.2-.5-.3-.8-.7-1-1.1-.3.8-.8 1.4-1.5 1.9-.7.4-1.5.6-2.5.6-1.5-.1-2.5-.6-3.1-1.5-.6-1-.7-2.2-.6-3.8 0-.4.1-.8.2-1.4.1-.6.2-1.1.2-1.4l.2-2.7h.9l.1 1.6 11.6.8.1-2h.9l-.4 5.5h-.9v-1.8l-5-.3-.1 1.8zm-6.8-1.7c-.2.6-.2 1.1-.2 1.5-.1 1 0 1.7.5 2.3.5.5 1.1.8 2.2.9 1 .1 1.8-.1 2.4-.6.6-.4.8-1.2 1-2.2.1-1 .1-1.6 0-2l-5.7-.4-.2.5zM15.7 297.7l-.2 3.2 3.8 1-.1 1.2-5-.8 1.3-11.6 5 .3-.1 1.2-3.9.2-.5 3.2 11.7 1.3.5-2.6.9.1-.8 7.1-.9-.1V299l-11.7-1.3zM29.8 283.8c-.7.8-1.7 1.5-2.8 1.8-1.1.3-2.4.4-3.8.1-1.4-.3-2.6-.7-3.5-1.4-.9-.8-1.7-1.7-2.1-2.8-.4-1.1-.5-2.3-.3-3.5.2-1 .5-2.1 1-3.3l.2-.5 3.3.7-.2 1.3-2.5.1c-.1.2-.3.4-.5.9-.2.4-.3.9-.4 1.5-.1.8 0 1.5.3 2.2.3.7.9 1.3 1.8 1.8.8.5 1.8.8 3.1 1 1.2.2 2.2.2 3.2.1 1-.2 1.9-.5 2.5-1.1.7-.5 1-1.2 1.2-2.2.1-.7.1-1.2.1-1.5 0-.3-.1-.6-.3-1l-1.7-1.1.3-1.1 2.5.9c-.1.3 0 .6.1 1.1.1.4.1.9.1 1.4.1.4 0 .9-.1 1.6-.3 1-.8 2.1-1.5 3zM19.6 266.5l.9.1-.2 1.8 9.2 1.9-1.9-1.9-5.4-6.6-.5-.1-.5 1.6-.9-.1 1-5 .9.1-.1 1.5 11.4 2.4.5-1.5.9.2-1.1 5.1-.9-.2.1-1.7-9.3-2 1.9 1.8 5.4 6.7.7.2.6-1.7.9.1-1.1 5.1-.9-.1.1-1.6-11.4-2.4-.5 1.4-.9-.1 1.1-5zM24.1 246.7l4.8 1.1-.3 1.2-3.8-.4-1.2 4 11.5 2.9 1-3.1.9.2-1.8 7.1-.9-.2.3-2-11.3-2.8-.7 1.9-.9-.2 2.4-9.7zM26.1 243.9l-.7 1.4-.9-.2 1.5-4.9.9.2-.2 1.6 4.8 1.5 1.9-6.3-4.8-1.5-.6 1.3-.9-.2 1.5-4.8.9.2-.2 1.5 11.1 3.4.6-1.4.9.2-1.5 4.8-.9-.2.3-1.5-5.2-1.6-1.9 6.3 5.2 1.6.6-1.5.9.2-1.5 4.9-.9-.2.3-1.5-11.2-3.3zM30.6 225.4l.7-1.9H45l.6-1.1.8.3-1.7 4.6-.8-.3.3-1.5-2.9-.1-1.8 5.1 2.3 1.7.7-1.4.8.3-1.4 4.2-.8-.3.2-1.2-10.7-8.4zm3.3 0-1.7-.1 1.5 1 5 3.8 1.6-4.5-6.4-.2zM43.5 216.5c1.5.9 2.6 1.7 3.2 2.5.3.4.5.8.6 1.2.1.4 0 .8-.1 1.2-.2.5-.4.9-.6 1.2l-1.4-.5c.2-.3.3-.7.5-1.3.1-.2.1-.5.1-.6 0-.2-.2-.5-.3-.7-1.1-1.4-3.7-3-7.9-4.7l-1.4-.6-1 1.9-.8-.3 4-10 .8.3-.5 1.7 10.8 4.3.8-1.6.8.3-2.1 5.3-.8-.3.5-1.9-10.7-4.3-1.4 3.5 1.6.6c2 1.1 3.9 1.9 5.3 2.8zM46.6 200.7c.7-1.3 1.4-2.3 2.5-2.7 1-.4 2-.4 3.2.2 1.3.6 2.1 1.5 2.4 2.7.3 1.1.2 2.4-.5 3.7-.1.2-.2.4-.2.5-.1.2-.2.4-.4.6-.4.6-.6 1.2-.9 1.7l-1 2.3-.8-.4.5-1.5-10.6-5-.9 1.3-.8-.4 2.2-4.8.8.4-.6 1.8 3.9 1.9 1.2-2.3zm0-13 .8.4-.6 1.7 10.5 4.9.9-1.5.8.4-2.4 5-.8-.4.6-1.7-10.5-4.9-.9 1.5-.8-.4 2.4-5zm6.1 17.7c.1-.2.2-.5.4-.9.4-.9.5-1.8.2-2.6s-1-1.4-1.9-1.8c-.9-.4-1.8-.5-2.5-.3-.7.3-1.3.9-1.7 1.8l-.8 1.7 5.7 2.6c.3-.1.5-.3.6-.5zM51.6 180.6l-.9 1.2-.8-.4 2.5-4.4.8.4-.6 1.5 4.4 2.4 3.2-5.8-4.4-2.4-.9 1.2-.8-.4 2.4-4.4.8.4-.5 1.4L67 177l.9-1.2.8.4-2.4 4.4-.8-.4.6-1.5-4.8-2.6-3.2 5.8 4.8 2.6 1-1.4.8.4-2.5 4.5-.8-.4.6-1.4-10.4-5.6zM60 163.7l1.1-1.7 13.4 3 .8-.9.8.5-2.6 4.2-.8-.5.7-1.4-2.9-.8-2.9 4.6 1.8 2.2 1-1.2.8.5-2.3 3.8-.8-.5.5-1.1-8.6-10.7zm3.1.6-1.6-.4 1.2 1.2 4.1 4.8 2.5-4-6.2-1.6zM69.6 151.1l-1.3 1.6-.8-.5 2.9-4 8.3 2.7 2.3.9-1.6-1.9-5.3-7 2.9-4 .8.5-1 1.8 10.3 5.5 1.1-1.2.8.5-3.2 4.4-.8-.4.8-1.5-7.3-4.2-3.2-1.8 1.8 2.2 6.1 8.3-.7 1-9-2.7-3.6-1.2 2.7 2.4L79 158l1.2-1.4.8.4-2.8 3.9-.8-.5.8-1.4-8.6-7.9z"/><path fill="#F8A90B" d="m81.3 133.3 1.2-1.6 13 4.5.8-.8.8.6-3.1 3.9-.8-.6.9-1.3-2.7-1-3.4 4.3 1.6 2.4 1.1-1.1.8.6-2.8 3.4-.8-.6.6-1.1-7.2-11.6zm3 .9-1.6-.6 1.1 1.4 3.5 5.2 2.9-3.7-5.9-2.3zM88.9 126l-1.2.9-.8-.6 1.6-1.9c.3-.3.6-.7.8-1l1.2-1.5c1.2-1.3 2.3-2.1 3.3-2.3s2 .2 3 1.1c.8.6 1.3 1.4 1.5 2.2.3.9.3 1.7 0 2.6-.2.9-.7 1.8-1.4 2.5-.3.2-.5.6-.7.8-.3.2-.4.4-.4.5L99 132l1.8-1.8.7.6-4 4.6-.7-.6.9-1.3-8.8-7.5zm7.4 1.4c.6-.8.9-1.6.9-2.4-.1-.8-.6-1.7-1.6-2.7-.8-.7-1.6-1-2.3-.9-.7.1-1.4.5-2.2 1.4-.3.3-.5.7-.8 1-.2.3-.3.3-.3.4l5.1 4.3c.2 0 .6-.4 1.2-1.1zM106.7 124.1c-1.1.3-2.2.2-3.3-.1-1.1-.4-2.2-1-3.2-2s-1.7-2-2.1-3.2c-.4-1.1-.4-2.3-.2-3.5.3-1.1.8-2.2 1.7-3.1.7-.7 1.5-1.4 2.7-2.2l.5-.4 2.3 2.4-.8.9-2.1-1.3c-.2 0-.6.2-.9.4-.4.2-.8.6-1.2 1-.6.6-.9 1.3-.9 2-.1.8.1 1.6.5 2.5.4.8 1.1 1.7 2 2.6.8.8 1.8 1.4 2.7 1.8.9.4 1.8.6 2.6.5.8-.1 1.6-.5 2.2-1.1.4-.5.8-.9.9-1.2.2-.3.3-.6.3-.9l-.8-1.9.9-.8 1.7 2.2c-.1.2-.3.5-.6 1.1l-.6 1.2c-.2.4-.5.8-1 1.3-1.2.8-2.3 1.5-3.3 1.8zM117.8 94.6l.6.7-1.2 1.4 6.3 7-.4-2.8-.4-8.5-.3-.4-1.4 1-.6-.7 3.9-3.4.6.7-.9 1.2 7.8 8.7 1.3-.9.6.7-3.9 3.4-.6-.7 1.1-1.2-6.3-7.1.4 2.6.3 8.6.5.5 1.4-1.1.6.7-3.9 3.5-.6-.7 1-1.2-7.8-8.7-1.2.8-.6-.7 3.7-3.4zM127.4 86.6l.9-1.2.8-.8c1.2-1 2.3-1.5 3.3-1.7s1.8.3 2.5 1.1c.6.8.9 1.6.8 2.4-.1.9-.4 1.6-1 2.4.9-.7 1.8-1 2.7-.9.9 0 1.6.4 2.2 1.2.8 1 1.2 2.1 1 3.2s-1 2.2-2.4 3.3c-.5.5-1.1.8-1.6 1.1-.5.3-.9.5-1.3.6s-.6.2-.6.3l-1.8-2.7.8-.6 1.9 1.5c.6-.1 1.5-.5 2.3-1.2.7-.5 1-1.2 1-1.8 0-.7-.2-1.4-.9-2.2-.4-.6-1.1-1-1.7-1.1-.7-.1-1.5.2-2.4.9l-1 .8-.7-.8.8-.7c.4-.3.7-.7.9-1.2.2-.4.3-.9.3-1.5-.1-.5-.3-1-.7-1.5-.5-.7-1.1-1-1.7-1-.6 0-1.2.3-1.8.7-.4.4-.7.7-1 1.1-.3.3-.3.6-.2.9l.8 1.5-.9.8-2-2.2.7-.7zM140.6 77.3l-1.4.7-.5-.7 2-1.5c.4-.2.8-.6 1.3-1 .4-.4.8-.7 1-.8 1.4-1.1 2.6-1.6 3.5-1.5.9 0 1.7.5 2.3 1.2.5.7.7 1.5.7 2.3 0 .8-.4 1.5-1 2.2.9-.8 1.9-1 2.8-1 .9 0 1.7.6 2.2 1.3.7 1 1 2.1.8 3.3-.2 1.2-1.2 2.3-2.9 3.6-.4.3-.7.5-1.1.7-.8.5-1.3.9-1.5.9l-2 1.5-.5-.7 1.1-1-6.8-9.5zm5.4 2.2.9-.6c.7-.5 1.1-1.1 1.2-1.7.1-.6-.1-1.4-.7-2.1-.5-.7-1-1.1-1.6-1.1-.6-.1-1.4.2-2.2.8-.4.3-.7.5-1 .8l-.3.2 3.1 4.2c-.1.1.2-.2.6-.5zm4.8 5c1-.7 1.6-1.5 1.7-2.3.1-.8-.1-1.6-.6-2.3-.6-.8-1.2-1.2-1.8-1.3-.7-.1-1.4.2-2.3.9-1 .7-1.6 1.2-1.9 1.4l3.3 4.5c.2 0 .8-.3 1.6-.9zM153.2 66.9l1.7-1.2 10.9 8.2 1.1-.5.5.7-4.1 2.8-.5-.7 1.2-1-2.3-1.8-4.6 3 .8 2.8 1.4-.7.5.7-3.7 2.5-.5-.7.8-.8-3.2-13.3zm2.7 1.8-1.3-1.1.6 1.7 1.7 6.1 4-2.6-5-4.1zM169.8 71.9c-1.1 0-2.1-.4-3.2-1-.9-.7-1.8-1.6-2.6-2.8-.7-1.2-1.1-2.4-1.2-3.6-.1-1.1.2-2.4.8-3.4.6-1.1 1.4-1.9 2.5-2.6.8-.5 1.9-.9 3.2-1.4l.6-.3 1.5 3-1.1.6-1.7-1.8c-.2-.1-.5.1-1 .2-.4.1-.9.4-1.4.6-.7.4-1.2 1-1.5 1.6-.3.7-.4 1.5-.3 2.5s.6 2 1.2 3c.7 1 1.3 1.9 2.1 2.5.8.6 1.6 1 2.4 1.3s1.6 0 2.5-.5c.6-.3 1-.7 1.2-.9.3-.2.5-.6.5-.9l-.3-2 1.1-.5 1 2.5c-.2.1-.5.4-.8.8-.3.3-.6.7-1 1-.3.3-.8.6-1.3.9-.9.9-2.1 1.2-3.2 1.2zM179.5 54.2c.1-1.1.4-2.1.9-3s1.2-1.5 2.2-2.1c1.1-.6 2.2-.8 3.2-.8 1 .1 2 .4 2.8 1.2.8.7 1.6 1.7 2.3 2.8.8 1.3 1.1 2.6 1.2 3.9.1 1.2-.1 2.3-.7 3.3s-1.3 1.7-2.2 2.3c-1.1.6-2.2.8-3.3.8-1-.1-2-.4-2.9-1.1-.8-.6-1.7-1.6-2.3-2.8l-2.6 1.4 2.6 4.8 1.5-.6.4.8-4.5 2.5-.4-.8 1.3-.9-5.5-10.2-1.5.3-.5-.8 4.4-2.4.5.8-1.3.9 2.4 4.4 2.7-1.4c-.5-1-.7-2.1-.7-3.3zm1.8-1.3c-.1 1.3.3 2.8 1.3 4.6.9 1.6 1.8 2.7 3 3.3 1.2.6 2.2.7 3.3.1 1.1-.5 1.6-1.5 1.6-2.7 0-1.2-.4-2.8-1.3-4.5-.9-1.6-1.8-2.7-2.9-3.3-1.1-.6-2.2-.7-3.2-.1-1 .5-1.7 1.3-1.8 2.6zM200.2 49.5c.7.4 1.6.9 2.7 1.6.8.5 1.3.9 1.7 1.1.4.2.6.3.9.2l.7-.1.4.8-2.1 1c-.2.1-.6 0-1.2-.2-.5-.2-1.2-.7-2.2-1.4-1-.8-1.9-1.3-2.5-1.7-.6-.4-1.1-.4-1.5-.3l-1.1.5 2.3 4.8 1.6-.5.4.8-4.7 2.2-.4-.8 1.3-.8-4.9-10.5-1.4.4-.4-.8 4.5-2.1.4.8-1.4.9 2.3 4.9 1.4-.7 1.1-6.5-1.6.5-.4-.8 4.2-1.9.4.8-1.2.8-1.4 6.7c.7-.2 1.4 0 2.1.3zM209.4 51.2c-1.1-.2-1.9-.7-2.7-1.5-.8-.8-1.5-1.8-2.1-3.2-.5-1.4-.8-2.6-.7-3.8.1-1.2.4-2.2 1.1-3.2.7-.9 1.6-1.6 2.6-2.1 1.8-.7 3.4-.7 4.8 0s2.6 2.1 3.4 4.1c.5 1.4.8 2.7.7 3.9-.1 1.2-.4 2.3-1.1 3.3-.7.9-1.6 1.6-2.6 2.1-1.2.5-2.3.6-3.4.4zm-3.6-10.1c-.2 1.3.1 2.8.8 4.7.8 1.7 1.6 3 2.7 3.7 1 .8 2.1.9 3.3.4 1.1-.4 1.8-1.4 2-2.6.2-1.3 0-2.9-.9-4.7-.8-1.7-1.6-3-2.7-3.7-1-.7-2.1-.9-3.3-.4-1 .5-1.6 1.3-1.9 2.6zM216.8 35.1l-1.5.3-.3-.9 2.4-.9c.4-.1.9-.4 1.5-.6s.9-.5 1.2-.5c1.6-.6 2.9-.8 3.7-.5s1.5.8 1.9 1.8c.3.8.4 1.6.1 2.4-.3.7-.8 1.4-1.5 1.8 1.1-.4 2.1-.5 2.9-.2.9.2 1.5.9 1.8 1.9.4 1.1.4 2.3-.2 3.3-.6 1.1-1.8 1.9-3.8 2.7-.5.2-.8.3-1.2.4-.9.3-1.5.5-1.7.6l-2.4.9-.3-.8 1.4-.7-4-11zm4.6 3.7 1-.3c.8-.3 1.3-.8 1.6-1.4.3-.6.3-1.4-.1-2.2-.3-.8-.8-1.3-1.3-1.6-.5-.2-1.4-.2-2.4.2-.5.2-.8.4-1.3.6l-.4.2 1.9 4.9c.1-.1.5-.2 1-.4zm3.2 6.1c1.1-.4 1.9-1 2.3-1.7.4-.7.4-1.4 0-2.4-.4-.9-.8-1.4-1.4-1.7-.6-.3-1.5-.2-2.5.2-1.2.4-1.9.7-2.3.8l2 5.2c.3.2 1-.1 1.9-.4zM244.3 24.8l.3.9-1.4.7 3.3 11.1 1.7-.4.3.9-5 1.5-.3-.9 1.4-.6-3.4-11.2-5.8 1.7 3.4 11.2 1.7-.4.3.9-5 1.5-.3-.9 1.4-.6-3.3-11.1-1.6.3-.3-.9 12.6-3.7zM252.1 36.4c-1-.4-1.9-1-2.5-1.9-.7-.9-1.2-2-1.5-3.5-.3-1.4-.4-2.7-.2-3.9.2-1.2.8-2.1 1.5-3 .7-.8 1.7-1.4 2.9-1.7 1.9-.5 3.4-.3 4.8.7 1.3 1 2.2 2.4 2.7 4.6.3 1.4.4 2.8.2 3.9-.2 1.3-.8 2.2-1.6 3-.8.8-1.8 1.4-2.9 1.7-1.3.4-2.4.4-3.4.1zM250 25.7c-.4 1.2-.3 2.8.2 4.7.4 1.8 1.2 3.2 2.1 4 .9.9 2 1.2 3.1.8 1.2-.3 1.9-1 2.4-2.3.4-1.2.4-2.9-.1-4.8-.4-1.8-1.2-3.2-2.1-4-.9-.9-1.9-1.1-3.1-.8-1.3.5-2.1 1.3-2.5 2.4zM266.1 28.5c.1 1.8 0 3.1-.4 4.1-.1.5-.4.9-.7 1.1-.3.2-.6.4-1.1.5-.6.2-1.1.1-1.3.2l-.4-1.4c.3 0 .7-.1 1.4-.2.2 0 .4-.1.6-.3.1-.2.3-.3.4-.6.6-1.7.4-4.7-.5-9.2l-.3-1.4-2.2.2-.2-.9 10.6-2.2.2.9-1.7.6 2.3 11.4 1.9-.2.2.9-5.6 1.1-.2-.9 1.9-.6-2.3-11.4-3.7.7.4 1.6c.2 2.3.5 4.3.7 6zM275.7 18.8h-1.5l-.2-1 9.4-1.6.8 2.9-1.1.1-.9-1.8-4.5.6.8 5.2 3.1-.6v-1.5l1.1-.1.7 4.3-1.1.1-.5-1.6-3.1.5.9 5.5 5.2-1.1.6-2.5 1.2.2v3.3l-10.2 1.6-.2-.9 1.5-.4-2-11.2zM291.1 16.4l-3.2.5-.1 3.9-1.3.2-.3-5 11.6-1.4.8 4.9-1.1.1-1.1-3.9-3.2.3 1.4 11.7 2.7-.1.1.9-7.1.9-.1-.9 2.4-.5-1.5-11.6zM306.4 21.8l-.9.1c-.3.2-.6.7-.8 1.2-.3.6-.6 1.4-.8 2.3-.4.9-.5 1.6-.8 2-.2.4-.4.7-.6.8l-2.5.2-.1-.9.7-.2c.2 0 .4-.2.6-.6s.4-.9.7-1.6c.3-.8.7-1.5 1-2.1.3-.5.7-.9 1-1.2-.9-.1-1.6-.5-2.1-1.2s-.8-1.4-.9-2.4c-.1-1.5.3-2.6 1.1-3.2.9-.7 2.1-1.1 3.8-1.1.3 0 .8-.1 1.4 0h1.3l2.7-.2.1.9-1.5.3.9 11.4 1.7.1.1.9-5.5.5-.1-.9 1.8-.3-.4-5-1.9.2zm.7-7.1c-.6-.1-1 0-1.5 0-.9.1-1.7.4-2.1.8-.5.5-.7 1.2-.6 2.3 0 1 .4 1.7.9 2.3.6.5 1.4.7 2.3.6 1 0 1.7-.2 2-.2l-.4-5.7-.6-.1zM317.8 14.2l-3.2.3-.5 3.9-1.2.1.1-5.1 11.6-.4.4 5h-1.1l-.8-3.9h-3.3l.4 11.8 2.6.1.1.9-7.1.2-.1-.9 2.4-.3-.3-11.7zM333.7 26.2c-.9-.7-1.6-1.5-2.2-2.5-.5-1.1-.7-2.3-.7-3.8.1-1.4.4-2.6 1-3.7s1.4-1.9 2.5-2.4 2.2-.8 3.5-.8c.9 0 2.1.2 3.4.5l.6.2-.3 3.4h-1.2l-.4-2.3c-.2-.1-.4-.3-.9-.4-.5-.1-1-.2-1.6-.2-.8 0-1.5.2-2.1.7-.6.4-1.1 1.1-1.5 1.9-.4.9-.6 1.9-.6 3.2 0 1.2.1 2.3.4 3.2.3.9.8 1.7 1.4 2.3.7.6 1.4.9 2.3.9.7 0 1.1 0 1.6-.1.3-.1.7-.2.9-.5l.8-1.8 1.2.2-.5 2.6c-.3 0-.6.1-1.2.2-.4.1-.9.3-1.3.3-.4.1-.9.1-1.6.1-1.4-.2-2.6-.5-3.5-1.2zM349.3 13.6v.9l-1.9.1-.7 9.4 1.7-2.2 5.8-6.2v-.5l-1.6-.3v-.9l5.1.3v.9l-1.5.1-.8 11.6 1.5.3v.9l-5.2-.4v-.9l1.6-.1.6-9.5-1.6 2-6 6.2-.1.7 1.8.3v.9l-5.3-.4v-.9l1.6-.1.8-11.6-1.5-.3V13l5.7.6zM369.6 15.5l-.4 4.9-1.3-.1-.1-3.8-4.1-.6-1.3 11.8 3.2.6-.1.9-7.3-.8.1-.9h2l1.2-11.5-1.9-.5.1-.9 9.9.9zM372.7 17l-1.4-.5.1-.9 5 .7-.1.9h-1.6l-.7 5 6.5 1 .7-5-1.5-.5.1-.9 5 .7-.1.9h-1.5l-1.7 11.4 1.4.4-.1.9-5-.7.1-.9h1.5l.8-5.4-6.5-1-.8 5.4 1.6.4-.1.9-5.1-.8.1-.9h1.5l1.8-11.1zM391.5 19l2 .4 1.9 13.5 1.1.4-.1.9-4.8-1 .1-.9 1.6.1-.3-2.9-5.3-1.1-1.4 2.6 1.5.5-.1.9-4.4-.9.1-.9h1.2l6.9-11.6zm.6 3.1-.2-1.7-.7 1.5-3 5.5 4.6.9-.7-6.2zM402.2 30.4c-.6 1.6-1.4 2.8-2.1 3.5-.4.4-.8.6-1.1.7-.3.1-.7.1-1.2 0-.6-.2-1-.3-1.3-.5l.2-1.5c.3.1.8.2 1.3.4.2.1.4 0 .6 0 .2 0 .4-.2.6-.4 1.2-1.2 2.5-4 3.6-8.5l.4-1.4-2-.5.3-1 10.5 2.6-.3 1-1.8-.2-2.8 11.3 1.8.7-.2.9-5.6-1.4.2-.9 2 .3 2.8-11.3-3.7-.9-.4 1.6c-.5 2-1.2 4-1.8 5.5zM418.3 31.3c1.4.5 2.4 1.2 3 2 .6.9.7 2 .3 3.2-.5 1.4-1.2 2.3-2.3 2.8-1.2.5-2.4.5-3.8.1-.2-.1-.4-.1-.6-.2-.2-.1-.4-.1-.6-.3-.6-.3-1.3-.5-1.8-.7l-2.4-.8.2-.9 1.5.3 3.4-11.1-1.3-.7.2-.9 5.1 1.6-.2.9-1.9-.3-1.3 4.1 2.5.9zm-3.8 6.7c.2.1.5.2.9.3 1 .3 1.9.3 2.6-.1.7-.4 1.2-1.1 1.5-2.1.3-1 .3-1.8-.1-2.5-.3-.6-1-1.1-2.1-1.5l-1.8-.5-1.8 6c.3.2.6.3.8.4zm16.6-8.5-.2.9-1.8-.3-3.4 11.1 1.6.7-.2.9-5.3-1.6.2-.9 1.7.4 3.4-11.1-1.6-.7.2-.9 5.4 1.5zM438.8 33.5l-1.3-.8.3-.8 4.7 1.8-.3.8-1.5-.3-1.8 4.7 6.2 2.4 1.8-4.7-1.3-.8.3-.8 4.7 1.8-.3.8-1.5-.3-4.1 10.9 1.3.7-.3.8-4.7-1.8.3-.8 1.5.4 2-5.1-6.2-2.4-2 5.1 1.4.8-.3.8-4.8-1.9.3-.8 1.5.4 4.1-10.9zM456.8 39.4l1.9.8-1 13.7.9.7-.3.8-4.5-2 .3-.8 1.5.5.4-3-5-2.2-2 2.1 1.4.8-.3.8-4.1-1.8.3-.8 1.1.3 9.4-9.9zm-.1 3.2.2-1.7-1.1 1.3-4.1 4.7 4.4 1.9.6-6.2zM470.5 47.1l-1.7-1.2.4-.8 4.4 2.3-1.5 8.7-.5 2.4 1.6-1.8 6.2-6.3 4.4 2.3-.4.8-1.9-.7-4.1 10.9 1.4 1-.4.8-4.7-2.5.4-.8 1.6.6 3.1-7.8 1.3-3.4-2 2-7.2 7.2-1.1-.6 1.5-9.4.7-3.6-1.9 3-4.6 7.1 1.6 1-.4.8-4.3-2.3.4-.8 1.5.6 6.2-9.5z"/><path fill="#F8A90B" d="m489.9 56.2 1.7 1.1-2.6 13.4.9.7-.4.8-4.2-2.5.4-.8 1.5.6.6-2.8-4.7-2.8-2.2 2 1.3 1-.4.8-3.8-2.2.4-.8 1.1.4 10.4-8.9zm-.5 3.1.4-1.6-1.2 1.2-4.7 4.2 4.1 2.4 1.4-6.2zM498.1 62.6l-1.1-1 .5-.8 2.1 1.4c.4.2.8.5 1.1.7.6.4 1.2.6 1.7 1 1.5 1 2.4 2 2.7 3 .2 1 .1 2.1-.6 3.1-.5.9-1.2 1.4-2 1.8-.8.4-1.7.5-2.5.3-.9-.1-1.8-.5-2.7-1-.4-.2-.6-.4-.9-.7-.4-.2-.5-.3-.6-.5l-2.3 3.5 2 1.6-.5.8-5.1-3.3.5-.8 1.4.7 6.3-9.8zm-.3 7.6c.9.5 1.6.7 2.5.6.9-.2 1.6-.8 2.4-2 .5-.9.8-1.7.5-2.4-.2-.7-.8-1.3-1.7-2-.4-.2-.7-.4-1.2-.6-.3-.2-.5-.2-.5-.2l-3.6 5.5c.4.3.8.6 1.6 1.1zM502.5 79.9c-.4-1-.5-2.2-.4-3.3.2-1.1.7-2.3 1.6-3.6.8-1.1 1.8-2 2.8-2.5 1.1-.5 2.2-.7 3.4-.6 1.2.1 2.3.5 3.3 1.3.8.5 1.7 1.4 2.5 2.3l.5.4-2.1 2.6-1-.7 1-2.2c0-.2-.3-.5-.5-.8-.2-.4-.7-.7-1.2-1-.7-.5-1.3-.7-2.2-.7-.8 0-1.6.3-2.4.8-.7.5-1.6 1.3-2.2 2.3-.7.9-1.1 1.9-1.5 2.9-.3.9-.4 1.8-.1 2.7.3.9.7 1.5 1.5 2 .5.3.9.7 1.3.8s.7.2 1 .2l1.7-1.1.9.9-1.9 1.9c-.3-.2-.6-.3-1.1-.5-.5-.1-.8-.3-1.3-.5-.4-.2-.8-.4-1.3-.8-1-.8-1.8-1.7-2.3-2.8zM529.8 83.9l-.6.8-1.6-1-5.9 7.3 2.7-.8 8.3-1.7.3-.5-1.1-1.2.6-.8 4 3.3-.6.8-1.3-.8-7.4 9 1.1 1.1-.6.7-4-3.3.6-.7 1.4.9 6-7.3-2.4.8-8.5 1.7-.4.5 1.2 1.2-.6.7-4.1-3.3.6-.7 1.3.9 7.4-9-1-1.1.6-.8 4 3.3zM539.3 92.2c.5.2.9.5 1.2.7.4.2.7.5.9.7 1.2 1 1.9 2 2.1 3 .2 1 0 1.8-.7 2.6-.7.7-1.4 1.1-2.3 1.1-.8.1-1.7-.1-2.5-.7.8.8 1.3 1.7 1.4 2.5.1.8-.2 1.7-.8 2.3-.9 1-1.9 1.5-3 1.4-1.1 0-2.3-.6-3.7-1.8-.6-.5-1-1-1.3-1.5-.4-.5-.6-.9-.8-1.1-.1-.2-.3-.5-.3-.6l2.4-2.2.7.6-1.2 2.1c.2.7.8 1.3 1.5 2 .7.6 1.2.8 1.9.7.6-.1 1.3-.5 2-1.2.6-.6.7-1.2.8-1.9.1-.7-.4-1.4-1.3-2.2l-1-.9.7-.7.8.7c.4.3.8.6 1.3.8.5.1 1 .2 1.5 0 .6-.2.9-.5 1.4-1 .6-.7.8-1.2.7-1.8 0-.6-.4-1.1-1.1-1.7-.4-.4-.8-.6-1.2-.8-.4-.2-.7-.2-.9-.1l-1.4 1.1-.9-.8 1.8-2.3c.4.5.7.7 1.3 1zM550.4 103.9l-.9-1.3.7-.6 1.8 1.8c.3.3.7.7 1.2 1.1.5.4.8.7 1 .9 1.2 1.2 1.9 2.3 2 3.2.2.9-.1 1.7-.9 2.4-.7.6-1.4 1-2.1 1.1-.7.1-1.6-.1-2.4-.6.9.8 1.4 1.7 1.4 2.6.1.9-.2 1.7-.9 2.4-.8.9-2 1.3-3.1 1.2-1.2-.1-2.5-.9-4-2.3-.3-.3-.6-.7-.9-.9-.6-.7-1-1.1-1.2-1.2l-1.8-1.8.7-.6 1.3 1 8.1-8.4zm-5.5 11.1c.9.8 1.7 1.4 2.5 1.4s1.5-.3 2.2-.9c.7-.6 1-1.4.9-2s-.5-1.3-1.3-2.2c-.9-.9-1.5-1.4-1.7-1.7l-3.9 3.9c.1.3.6.7 1.3 1.5zm4.2-5.5.7.7c.7.6 1.3 1 1.9.9s1.3-.4 1.9-1c.6-.7.9-1.2.9-1.8s-.5-1.3-1.2-2c-.3-.3-.7-.6-1.1-.9l-.3-.3-3.6 3.7c.2 0 .4.3.8.7zM562.7 114.6l1.4 1.5-6.4 12 .7 1-.7.6-3.3-3.6.7-.6 1.2 1 1.5-2.6-3.7-4-2.7 1.2 1 1.3-.7.6-3-3.2.7-.6.9.8 12.4-5.4zm-1.5 2.9.9-1.5-1.5.8-5.7 2.6 3.2 3.5 3.1-5.4zM560.2 131.7c-.2-1.2 0-2.2.5-3.3.5-1.1 1.3-2.1 2.4-3 1.1-.9 2.2-1.4 3.4-1.7 1.2-.3 2.4-.2 3.5.2s2.1 1.1 2.9 2.1c.6.8 1.3 1.8 1.9 2.9l.3.6-2.7 2-.8-.9 1.5-1.9c0-.2-.1-.5-.3-.9-.2-.4-.5-.8-.9-1.3-.5-.7-1.2-1-1.9-1.2-.8-.2-1.6-.1-2.5.1-.9.3-1.9.8-2.8 1.6-.9.8-1.6 1.6-2.2 2.4-.5.9-.8 1.7-.8 2.5s.3 1.6.9 2.4c.5.5.8.8 1.2 1 .4.2.6.4.9.3l1.9-.6.7 1-2.3 1.4c-.2-.1-.5-.4-.9-.8-.5-.2-.8-.5-1.1-.8-.3-.3-.8-.6-1.1-1.1-1-.7-1.6-1.8-1.7-3zM579.2 138.7c1.1-.1 2.1.1 3 .4.9.3 1.7 1.1 2.4 1.9.7 1 1.1 1.9 1.2 3 0 1-.1 2-.7 3s-1.3 1.9-2.5 2.7c-1.2.9-2.4 1.5-3.6 1.8-1.2.3-2.3.2-3.4-.2s-1.9-1-2.5-1.9c-.7-1-1.2-2-1.3-3.1-.1-1.1.1-2 .6-3 .6-1 1.3-1.9 2.4-2.7l-1.8-2.4-4.4 3.3.8 1.4-.7.5-3.1-4.1.7-.5 1.1 1.1 9.2-7-.8-1.3.8-.6 3 4-.8.6-1.1-1.1-4 3 1.8 2.4c1.5-.7 2.6-1 3.7-1.2zm1.6 1.5c-1.2.1-2.7.7-4.4 2-1.4 1.1-2.4 2.2-2.8 3.4-.4 1.2-.3 2.3.4 3.3.8.9 1.7 1.4 2.9 1.2 1.2-.1 2.7-.8 4.3-2 1.4-1.1 2.4-2.2 2.8-3.4.4-1.2.3-2.3-.4-3.2-.6-.9-1.6-1.4-2.8-1.3zM587.1 158.4c-.2.8-.7 1.8-1.2 2.9-.4.8-.6 1.5-.8 1.8-.1.4-.2.8-.1.9l.2.7-.7.5-1.3-1.9c-.1-.2-.1-.6.1-1.2.2-.5.6-1.4 1-2.4.6-1.2 1-2.1 1.2-2.7.3-.6.2-1.2.1-1.5l-.7-1-4.4 3 .7 1.5-.7.5-2.8-4.2.7-.5 1 1.2 9.6-6.5-.6-1.4.7-.5 2.8 4.1-.7.5-1-1.2-4.5 3 .9 1.4 6.6.1-.7-1.4.7-.5 2.5 3.8-.7.6-1-1.1-6.7-.3c.1.5 0 1.1-.2 1.8zM586.8 167.8c.1-1 .3-2 1.1-3 .7-.9 1.6-1.8 2.8-2.5 1.2-.8 2.5-1.2 3.6-1.3 1.2-.1 2.3.1 3.3.6s1.8 1.2 2.4 2.3c1 1.7 1.3 3.2.8 4.8-.5 1.5-1.7 2.8-3.5 3.9-1.2.8-2.5 1.2-3.7 1.3-1.2.1-2.3-.1-3.4-.6-1-.5-1.8-1.3-2.4-2.3-.8-1.1-1-2.2-1-3.2zm9.5-5.2c-1.2 0-2.8.5-4.5 1.5-1.6 1-2.7 2-3.2 3.2-.6 1.2-.5 2.2.1 3.3.7 1 1.6 1.6 2.8 1.6 1.3 0 2.8-.5 4.5-1.5 1.6-1 2.7-2 3.2-3.2.5-1.1.5-2.2-.1-3.3-.6-1-1.5-1.6-2.8-1.6zM603.8 172.7l-.5-1.5.8-.5 1.3 2.2c.2.4.5.8.9 1.4.4.5.6.9.7 1.1.8 1.5 1.2 2.7 1.1 3.6-.2 1-.6 1.6-1.5 2.1-.7.4-1.6.6-2.4.5-.8-.1-1.5-.5-2.1-1.3.6 1.1.8 1.9.6 2.9-.1.9-.7 1.5-1.6 2-1.1.6-2.2.7-3.3.3-1.1-.4-2.1-1.5-3.2-3.3l-.6-1.2c-.5-.8-.7-1.4-.8-1.5l-1.3-2.2.8-.4.9 1.3 10.2-5.5zm-8.5 9.1c.6 1.1 1.3 1.8 2 2 .8.2 1.5.1 2.3-.4.8-.5 1.3-1.1 1.5-1.6.2-.6 0-1.4-.6-2.4-.6-1.1-1-1.8-1.2-2l-4.9 2.7c.2.3.4.9.9 1.7zm5.6-4.1.5.9c.4.7 1 1.2 1.6 1.3.7.2 1.3 0 2.2-.4.7-.4 1.2-.9 1.3-1.5.2-.6 0-1.3-.6-2.3-.2-.4-.5-.7-.7-1.2l-.2-.4-4.6 2.5c.1.4.2.6.5 1.1zM618.3 198.1l-.8.4-.9-1.4-10.4 5.1.6 1.7-.8.4-2.3-4.8.8-.4.9 1.4 10.5-5-2.6-5.4-10.5 5.1.6 1.7-.8.4-2.3-4.7.8-.4.8 1.2 10.4-5.1-.5-1.6.8-.4 5.7 11.8zM608 207.7c.2-1.1.7-1.9 1.5-2.8.8-.8 1.8-1.5 3.1-2.1 1.3-.6 2.6-.8 3.8-.7 1.2.1 2.2.4 3.2 1.1.9.7 1.6 1.6 2.1 2.6.7 1.8.8 3.4 0 4.8-.7 1.4-2.1 2.6-4.1 3.4-1.4.6-2.7.8-3.9.7-1.2-.1-2.3-.4-3.3-1.1-.9-.7-1.6-1.6-2.2-2.6-.2-1.2-.4-2.3-.2-3.3zm10.2-3.7c-1.3-.2-2.8.1-4.7.9-1.7.8-3 1.6-3.7 2.7-.7 1-.9 2.1-.4 3.3.5 1.2 1.4 1.8 2.6 2s2.9 0 4.7-.9c1.7-.8 3-1.6 3.7-2.7.7-1 .8-2.1.4-3.3-.5-1.1-1.3-1.7-2.6-2zM617.9 220.1c-1.7.4-3.1.5-4.1.3-.5-.1-.9-.3-1.2-.5-.3-.3-.6-.6-.7-1-.3-.6-.3-1-.4-1.3l1.4-.6c0 .3.2.8.5 1.3 0 .2.2.4.4.5l.6.3c1.7.4 4.8-.3 9-1.9l1.4-.6-.6-2.1.9-.4 3.8 10.1-.9.4-.8-1.5-10.9 4.1.4 1.8-.9.3-2-5.4.9-.3.9 1.8 10.9-4.1-1.3-3.5-1.6.6c-2.1.9-3.9 1.4-5.7 1.7zM629 228.2l-.3-1.5.9-.3 3 9-2.6 1.1-.3-1 1.5-1.1-1.4-4.4-5 1.6 1 2.9 1.6-.2.3 1-4.1 1.3-.3-1 1.4-.7-.9-3-5.3 1.7 1.8 5 2.6.2v1.1l-3.3.4-3.3-9.8.9-.3.6 1.4 11.2-3.4zM633.8 243l-1-3-4 .5-.3-1.2 4.9-1 3.2 11.2-4.8 1.6-.3-1.1 3.6-1.7-.8-3.2-11.3 3.2.5 2.6-.9.3-1.9-6.8.9-.3.8 2.3 11.4-3.4zM630.9 259l-.2-.9c-.2-.3-.7-.4-1.4-.6-.7-.2-1.5-.3-2.4-.4-1-.2-1.6-.3-2.1-.5-.5-.1-.7-.3-.8-.5l-.6-2.5.9-.2.3.7c.1.1.3.3.7.5.4.1 1 .3 1.7.6.9.2 1.6.4 2.3.6.5.2 1 .5 1.3.8 0-.9.3-1.6.8-2.2.6-.7 1.3-1.1 2.2-1.3 1.4-.3 2.6-.1 3.3.6.7.7 1.3 1.9 1.7 3.5.1.3.2.9.2 1.4 0 .6.1 1.1.2 1.4l.6 2.6-.9.3-.6-1.5-11.3 2.7.3 1.7-.8.1-1.3-5.3.9-.2.6 1.7 4.8-1.2-.4-1.9zm7-.3c-.1-.5-.1-1.1-.2-1.5-.2-1-.6-1.6-1.1-2-.5-.4-1.3-.5-2.3-.2-1 .2-1.7.7-2.1 1.3-.4.6-.5 1.4-.2 2.4.2 1 .4 1.6.5 1.9l5.6-1.4-.2-.5zM640.1 269.2l-.7-3.1-4 .1-.2-1.2 5-.6 2.2 11.4-4.9 1.1-.2-1.2 3.7-1.3-.5-3.2-11.6 2.2.3 2.6-.9.2-1.4-7 .9-.2.7 2.3 11.6-2.1zM630.7 286.6c.5-1 1.2-1.9 2.2-2.5 1-.7 2.2-1 3.6-1.3 1.4-.1 2.7-.1 3.8.4 1.1.4 2 1.2 2.8 2.1.8.9 1.2 2 1.4 3.3.2 1 .2 2.1 0 3.5l-.1.6-3.3.2-.2-1.3 2.3-.8c.1-.2.2-.5.3-.9 0-.4.1-1-.1-1.6-.1-.7-.4-1.4-1-2-.6-.6-1.3-1-2.2-1.2-1-.3-2-.2-3.2-.2-1.2.2-2.2.4-3.1.9-.9.5-1.6 1-2.1 1.7s-.6 1.6-.5 2.4c.1.6.2 1.2.4 1.5.1.3.3.6.6.9l1.9.5v1.2l-2.7-.1c0-.2-.1-.6-.4-1.1-.2-.5-.4-.8-.5-1.2-.1-.4-.3-.9-.3-1.5-.2-1.2-.1-2.4.4-3.5zM645.6 300.2l-.9.1-.4-1.8-9.4.8 2.4 1.4 7.1 4.7.5-.1.1-1.7.9-.1.5 5.1-.9.1-.3-1.4-11.6 1.1v1.6l-.9.1-.4-5.2.9-.1.4 1.6 9.5-.8-2.3-1.2-7.1-4.9h-.6l-.1 1.7-.9.1-.4-5.2.9-.1.3 1.5 11.6-1.1.1-1.5.9-.1.1 5.4zM646.9 320.5l-4.9.3-.1-1.2 3.8-.7v-4.1l-11.8.5-.1 3.2-.9.1-.4-7.3.9-.1.3 2 11.6-.6.1-2 .9-.1.6 10zM645.8 323.8l.2-1.5h.9v5.1h-.9l-.2-1.6h-5v6.6h5l.2-1.5h.9v5h-.9l-.2-1.5h-11.6l-.2 1.5h-.9v-5h.9l.2 1.6h5.4v-6.6h-5.4l-.2 1.6h-.9l-.1-5.1h.9l.2 1.5 11.7-.1zM646.8 342.7v2l-13.1 3.9-.2 1.2h-.9l.2-4.9h.9l.1 1.6 2.9-.8.2-5.4-2.7-1-.2 1.6h-.9l.2-4.4h.9l.1 1.1 12.5 5.1zm-3 1.1 1.6-.4-1.7-.6-5.9-2.2-.2 4.7 6.2-1.5zM637.2 355.1c-1.7-.5-2.9-.9-3.8-1.5-.4-.3-.8-.6-.9-.9-.2-.4-.2-.8-.2-1.2.1-.6.1-1 .2-1.3h1.5c-.1.3-.1.8-.2 1.4-.1.2 0 .4.1.6 0 .2.2.4.5.5 1.3 1.1 4.4 1.8 8.9 2.2l1.5.1.4-2.1h.9l-.9 10.7h-.9v-1.7l-11.5-1.1-.4 1.8h-.9l.5-5.8h.9v1.9l11.5 1.1.3-3.8-1.7-.1c-2.2-.2-4.2-.5-5.8-.8zM639.7 391.6l.6-1.4.9.2-1.1 5-.9-.2.1-1.6-4.9-1.1-1.4 6.5 4.9 1.1.6-1.4.9.2-1.1 4.9-.9-.2.1-1.5-11.4-2.4-.5 1.4-.9-.2 1.1-4.9.9.2-.1 1.5 5.3 1.1 1.4-6.4-5.3-1.1-.5 1.6-.9-.2 1.1-5 .9.2-.1 1.5 11.2 2.2zM636.7 410.1l-.5 2-13.6 1.3-.5 1.1-.9-.2 1.2-4.8.9.2-.2 1.6 2.9-.1 1.3-5.3-2.5-1.5-.6 1.5-.9-.2 1.1-4.3.9.2-.1 1.2 11.5 7.3zm-3.1.4h1.7l-1.5-.8-5.3-3.3-1.1 4.6 6.2-.5zM631.2 425.1l.9-1.9.8.3-1.6 4.7-8.8-.2-2.4-.1 2.1 1.3 7.2 5.2-1.6 4.7-.8-.3.4-2-11.5-2.3-.7 1.4-.8-.3 1.7-5.2.8.3-.3 1.6 8.2 1.9 3.6.8-2.3-1.6-8.3-6.1.4-1.1h9.5l3.7.1-3.4-1.5-7.7-3.4-.8 1.7-.8-.3 1.5-4.6.8.3-.3 1.5 10.5 5.1z"/><path fill="#F8A90B" d="m625.3 445.7-.7 1.9-13.6-.5-.6 1-.8-.3 1.8-4.6.8.3-.4 1.5 2.9.2 2-5.1-2.3-1.8-.8 1.4-.8-.3 1.6-4.1.8.3-.2 1.2 10.3 8.9zm-3.3-.1 1.7.1-1.4-1-4.9-3.9-1.7 4.4 6.3.4zM620.2 454.7l.8-1.2.8.3-1 2.3c-.2.5-.3.8-.5 1.2-.3.6-.4 1.2-.7 1.8-.7 1.6-1.5 2.6-2.5 3.1-.9.4-1.9.4-3.2-.1-.9-.4-1.6-.9-2.1-1.7-.5-.7-.7-1.5-.8-2.4-.1-.9.2-1.9.6-2.8l.5-1c.2-.4.2-.5.4-.6l-3.7-1.6-1.2 2.2-.8-.3 2.5-5.5.8.3-.5 1.5 10.6 4.5zm-7.6.8c-.4.9-.5 1.7-.2 2.6.3.9 1 1.5 2.3 2 1 .5 1.8.5 2.4.2.7-.3 1.2-1 1.7-2 .2-.4.3-.7.4-1.2.1-.3.1-.5.2-.6l-6.1-2.7c-.1.5-.4 1-.7 1.7zM603.7 461.8c1-.6 2.1-.9 3.2-.9 1.2 0 2.5.4 3.7 1 1.3.6 2.3 1.4 2.9 2.4.7 1 1.1 2.1 1.2 3.3.1 1.1-.1 2.3-.7 3.5-.4.9-1.1 1.8-1.9 3l-.3.5-2.9-1.6.5-1.1 2.4.6c.2 0 .5-.3.8-.6.3-.3.5-.8.9-1.3.4-.7.5-1.4.3-2.3-.1-.7-.5-1.5-1.1-2.2-.6-.7-1.5-1.3-2.6-1.9-1.1-.5-2.1-.9-3.1-1-1-.2-1.9-.1-2.7.3-.8.3-1.4.9-1.8 1.8-.3.6-.5 1.1-.5 1.5-.1.4-.1.7 0 1l1.3 1.5-.7.9-2.2-1.6c.1-.3.2-.7.3-1.1.1-.5.1-.9.3-1.4.1-.4.4-.9.6-1.5.4-1.2 1.1-2.1 2.1-2.8zM604.1 489.3l-.8-.5.8-1.7-8.1-4.7 1.2 2.5 2.9 8 .4.2 1.1-1.3.8.5-2.6 4.4-.8-.5.6-1.4-10-5.8-1 1.3-.8-.4 2.6-4.5.8.4-.7 1.5 8.2 4.8-1.2-2.3-2.9-8.1-.6-.4-1.1 1.4-.8-.4 2.7-4.6.8.4-.6 1.5 10 5.8.9-1.2.8.5-2.6 4.6zM597.4 499.9c-.2.5-.4 1-.6 1.4-.2.4-.4.7-.6 1-.9 1.3-1.7 2.2-2.6 2.6-.9.4-1.8.3-2.7-.2-.9-.5-1.3-1.3-1.5-2.1-.2-.9-.1-1.6.3-2.6-.7.9-1.4 1.6-2.3 1.7-.9.2-1.6.1-2.4-.4-1.1-.7-1.8-1.6-1.9-2.8-.1-1.1.2-2.4 1.3-3.9.4-.6.8-1.1 1.2-1.6.4-.4.8-.7 1.1-.9.3-.2.4-.4.5-.4l2.5 2-.5.8-2.3-.9c-.6.3-1.2.9-1.8 1.9-.5.7-.6 1.4-.4 2 .1.6.7 1.2 1.6 1.7.6.4 1.3.5 2 .4s1.4-.6 1.9-1.5l.7-1.1.9.5-.5.9c-.3.4-.4.9-.6 1.4 0 .5 0 1 .2 1.5s.6.9 1.1 1.2c.7.5 1.4.6 1.9.4.6-.2 1.1-.6 1.6-1.3.3-.4.5-.9.5-1.3.1-.4.1-.7-.1-.9l-1.3-1.3.7-.9 2.5 1.4c-.1.4-.3.8-.4 1.3zM587.6 512.9l1.1-1.1.8.5-1.5 2.1c-.3.3-.5.8-.9 1.4-.3.5-.5.9-.7 1.1-1 1.4-1.9 2.2-2.8 2.5-.9.3-1.8.1-2.5-.5-.7-.5-1.2-1.1-1.4-2-.2-.8-.1-1.6.2-2.4-.7.9-1.4 1.6-2.3 1.8-.9.2-1.7 0-2.5-.6-1-.8-1.6-1.7-1.7-2.9-.1-1.1.4-2.6 1.6-4.2.3-.3.5-.7.8-1 .6-.8 1-1.3 1.1-1.3l1.5-2.1.8.5-.8 1.3 9.2 6.9zm-11.9-3.8c-.8 1-1 2-1 2.7 0 .7.5 1.5 1.3 2 .8.6 1.5.8 2.2.7.6-.1 1.3-.7 1.9-1.5.8-1 1.2-1.7 1.3-2l-4.5-3.2c-.2-.1-.6.4-1.2 1.3zm6 3.2-.6.8c-.5.7-.7 1.3-.5 2 .1.6.6 1.3 1.3 1.8.7.5 1.3.7 2 .6.6-.2 1.2-.6 1.8-1.5.3-.3.5-.8.7-1.1l.2-.4-4.2-3.1c-.1.3-.4.5-.7.9zM578.8 526.6l-1.2 1.6-13-4.5-.8.8-.8-.6 3.1-3.9.8.6-.9 1.4 2.7 1 3.4-4.3-1.6-2.4-1.1 1.1-.8-.6 2.8-3.4.8.6-.6 1.1 7.2 11.5zm-3.1-1 1.6.6-1-1.4-3.5-5.2-2.9 3.7 5.8 2.3zM561.5 526.8c1.1-.3 2.2-.3 3.4 0 1.1.3 2.3 1 3.4 1.9 1.1.9 1.8 1.9 2.2 3 .4 1.1.5 2.3.3 3.4-.2 1.2-.8 2.2-1.6 3.1-.6.8-1.5 1.5-2.6 2.4l-.5.4-2.4-2.4.8-.9 2.1 1.2c.2 0 .6-.2.9-.5.4-.2.8-.6 1.1-1.1.6-.6.9-1.3.9-2.1.1-.8-.1-1.6-.6-2.4-.5-.8-1.1-1.7-2.1-2.5-.9-.8-1.8-1.4-2.7-1.7-.9-.3-1.8-.5-2.6-.4-.8.1-1.6.5-2.2 1.3-.4.5-.8.9-.9 1.3-.2.4-.2.7-.3 1l.9 1.8-.9.8-1.7-2.1c.1-.2.3-.5.6-1.1.2-.5.4-.8.6-1.2s.5-.8 1-1.3c.7-.9 1.8-1.6 2.9-1.9zM557.5 546.7c.3 1.1.3 2.1.1 3.1-.3.9-.7 1.8-1.5 2.6-.8.9-1.8 1.4-2.8 1.7-1 .2-2.1.2-3.1-.2s-2.1-1.1-3-1.9c-1.1-1-1.9-2.1-2.3-3.4-.4-1.1-.6-2.3-.3-3.3.2-1.1.8-2 1.5-2.9.8-.9 1.8-1.4 2.8-1.8 1-.2 2.1-.2 3.1.2s2.1 1.1 3 1.9l2.1-2.2-4-3.8-1.3 1-.6-.7 3.5-3.7.7.6-1 1.3 8.3 8 1.2-.9.6.7-3.5 3.6-.6-.7 1-1.3-3.6-3.5-2.1 2.2c1 1.2 1.5 2.3 1.8 3.4zm-1.1 1.7c-.3-1.2-1.2-2.5-2.6-4-1.3-1.3-2.6-2-3.9-2.3-1.3-.2-2.4.1-3.2 1-.9.9-1.1 1.8-.8 3s1.2 2.5 2.7 4c1.3 1.3 2.5 2 3.8 2.3 1.2.3 2.2 0 3.1-.9.8-.8 1-1.8.9-3.1zM539.3 557.5c-.8-.1-1.8-.4-3.1-.7-.9-.2-1.5-.4-2-.5-.4-.1-.7-.1-.9.1l-.7.3-.6-.7 1.6-1.6c.2-.1.6-.3 1.2-.1.6.2 1.4.4 2.6.7 1.2.4 2.2.7 2.9.8.7.2 1.2.1 1.5-.2l.8-.8-3.6-3.9-1.4 1-.6-.7 3.8-3.5.6.7-1 1.2 7.9 8.5 1.3-.9.6.7-3.7 3.4-.6-.7 1-1.3-3.6-3.9-1.2 1.1.9 6.6 1.3-.9.6.7-3.4 3.2-.6-.7.9-1.2-.7-6.7c-.3.1-1 .1-1.8 0zM530 558.7c1.1-.1 2.1.1 3.1.6 1.1.5 2 1.3 2.9 2.4.9 1.1 1.5 2.2 1.8 3.4.3 1.2.3 2.3-.1 3.3s-.9 2-1.9 2.8c-1.5 1.2-3 1.7-4.6 1.5-1.6-.2-3-1.2-4.5-2.8-.9-1.1-1.5-2.2-1.8-3.4-.3-1.2-.3-2.3.1-3.4.3-1.1.9-2 1.9-2.8 1-1.1 2-1.5 3.1-1.6zm6.6 8.6c-.2-1.3-.9-2.7-2.2-4.2-1.2-1.5-2.4-2.3-3.7-2.7-1.2-.4-2.3-.2-3.2.6-.9.8-1.3 1.8-1.1 3.1.2 1.3.9 2.7 2.2 4.3 1.2 1.5 2.4 2.3 3.7 2.7 1.2.3 2.3.1 3.2-.7.8-.9 1.2-1.9 1.1-3.1zM527.9 576.1l1.3-.8.6.8-1.9 1.5c-.4.2-.8.6-1.2 1.1-.4.4-.8.7-1 .8-1.4 1.1-2.5 1.6-3.4 1.6-.9.1-1.7-.4-2.3-1.1-.5-.7-.8-1.4-.8-2.3 0-.8.3-1.5.9-2.2-.9.8-1.8 1.1-2.7 1.1-.9 0-1.7-.5-2.3-1.2-.7-1-1.1-2.1-.9-3.3.2-1.2 1.2-2.4 2.7-3.7.4-.3.7-.5 1-.7.8-.6 1.3-.9 1.4-1.1l1.9-1.5.5.7-1.1 1.1 7.3 9.2zm-10.4-6.8c-1 .7-1.5 1.5-1.6 2.3-.1.8.1 1.6.7 2.3.6.8 1.2 1.1 1.9 1.2.7.1 1.4-.2 2.3-.9 1-.7 1.7-1.3 1.8-1.5l-3.4-4.4c-.4-.1-.9.3-1.7 1zm4.9 4.8-.8.6c-.7.5-1 1.2-1.1 1.8-.1.7.1 1.4.8 2 .5.7 1.2 1 1.7 1.1.6.1 1.3-.3 2.2-.9.4-.3.7-.6 1.1-.9l.3-.2-3.2-4.1c-.3 0-.6.3-1 .6z"/><circle cx="113.2" cy="108.2" r="2" fill="#F8A90B"/><circle cx="517.7" cy="82.5" r="2" fill="#F8A90B"/></svg>