<svg xmlns="http://www.w3.org/2000/svg" xml:space="preserve" viewBox="0 0 246 36"><path fill="#595653" d="M20.8 31.9h-.6v-.5c0-.1 0-.1-.1-.2v-.5c0-.1 0-.1-.1-.2 0-.1 0-.1-.1-.2v-.1s0-.1-.1-.1V30s0-.1-.1-.1v-.1s0-.1-.1-.1c0-.1-.1-.1-.1-.2v-.1l-.1-.1v-.1s0-.1-.1-.1V29s0-.1-.1-.1l-.1-.1-.1-.1s0-.1-.1-.1c0 0 0-.1-.1-.1 0 0 0-.1-.1-.1 0 0 0-.1-.1-.1 0 0 0-.1-.1-.1l-.1-.1-.1-.1-.1-.1s0-.1-.1-.1l-.1-.1s0-.1-.1-.1l.3.4-.1-.1v-.1l-.3-.3-.1-.1-.1-.1-.3-.3-.1-.1-.1-.1c-.1-.1-.3-.2-.4-.3l-.1-.1-.1-.1c-.1-.1-.3-.2-.4-.3l-.1-.1c-.3-.1-.5-.3-.8-.4-.1 0-.1-.1-.2-.1h1.4c.2 0 .4-.3.4-.6s-.2-.6-.4-.6H16c0-.1.1-.1.1-.2.4-.2 1.1-.7 1.8-1.7l.2-.2.2-.2s0-.1.1-.1c0 0 0-.1.1-.1 0 0 0-.1.1-.1 0 0 0-.1.1-.1 0 0 0-.1.1-.1 0 0 0-.1.1-.1 0 0 0-.1.1-.1 0 0 0-.1.1-.1 0 0 0-.1.1-.1 0 0 0-.1.1-.1 0 0 0-.1.1-.1v-.1s0-.1.1-.1v-.2c0-.1 0-.1.1-.2v-8.8c-2-10.7-13.2-9-13.2-9l.4 2.3L0 11.5l.3 2.6 2.6 1.5c.1-.3.3-.5.4-.8C5 13 8.2 11.6 9.1 11.3c.2-.1.3-.1.3-.1-4.4 5.4-3.9 11.6-3.7 13-.2 0-.4.3-.4.6s.2.6.4.6h1.4c-2.3.9-4.2 2.7-5.2 4.9-.1.2-.1.3-.2.5V31.9H.9c-.1 0-.2 0-.3.1-.1 0-.2.1-.3.2s-.1.2-.2.3c-.1 0-.1.1-.1.2s0 .2.1.3c0 .1.1.2.2.3.1.1.2.1.3.2.1 0 .2.1.3.1h20c.1 0 .2 0 .3-.1.1 0 .2-.1.3-.2.1-.1.1-.2.2-.3 0-.1.1-.2.1-.3s0-.2-.1-.3c0-.1-.1-.2-.2-.3-.1-.1-.2-.1-.3-.2-.2.1-.3 0-.4 0zM44.2 31.9h-.6v-.5c0-.1 0-.1-.1-.2v-.5c0-.1 0-.1-.1-.2 0-.1 0-.1-.1-.2v-.1s0-.1-.1-.1V30s0-.1-.1-.1v-.1s0-.1-.1-.1c0-.1-.1-.1-.1-.2v-.1l-.1-.1v-.1s0-.1-.1-.1V29s0-.1-.1-.1l-.1-.1-.1-.1s0-.1-.1-.1 0-.1-.1-.1c0 0 0-.1-.1-.1 0 0 0-.1-.1-.1 0 0 0-.1-.1-.1l.1.3-.1-.1-.1-.1s0-.1-.1-.1l-.1-.1s0-.1-.1-.1h.1l-.1-.1v-.1l-.3-.3-.1-.1-.1-.1-.3-.3-.1-.1-.1-.1c-.1-.1-.3-.2-.4-.3l-.1-.1-.1-.1c-.1-.1-.3-.2-.4-.3l-.1-.1c-.3-.1-.5-.3-.8-.4-.1 0-.1-.1-.2-.1h1.4c.2 0 .4-.3.4-.6s-.2-.6-.4-.6h-.4c0-.1.1-.1.1-.2.4-.2 1.1-.7 1.8-1.7l.2-.2.2-.2s0-.1.1-.1c0 0 0-.1.1-.1 0 0 0-.1.1-.1 0 0 0-.1.1-.1 0 0 0-.1.1-.1 0 0 0-.1.1-.1 0 0 0-.1.1-.1 0 0 0-.1.1-.1 0 0 0-.1.1-.1 0 0 0-.1.1-.1 0 0 0-.1.1-.1v-.1s0-.1.1-.1v-.2c0-.1 0-.1.1-.2v-8.8c-2-10.7-13.2-9-13.2-9l.4 2.3-6.8 6.8.3 2.6 2.6 1.5c.1-.3.3-.5.4-.8 1.7-1.8 4.9-3.2 5.8-3.5.2-.1.3-.1.3-.1-4.4 5.4-3.9 11.6-3.7 13-.2 0-.4.3-.4.6s.2.6.4.6h1.4c-2.3.9-4.2 2.7-5.2 4.9-.1.2-.1.3-.2.5V31.9h-.6c-.1 0-.2 0-.3.1-.1 0-.2.1-.3.2-.1.1-.1.2-.2.3 0 .1-.1.2-.1.3s0 .2.1.3c0 .1.1.2.2.3.1.1.2.1.3.2.1 0 .2.1.3.1h20c.1 0 .2 0 .3-.1.1 0 .2-.1.3-.2.1-.1.1-.2.2-.3s.1-.2.1-.3 0-.2-.1-.3-.1-.2-.2-.3c-.1-.1-.2-.1-.3-.2-.4 0-.5-.1-.6-.1zM67.6 31.9H67v-.5c0-.1 0-.1-.1-.2v-.5c0-.1 0-.1-.1-.2 0-.1 0-.1-.1-.2v-.1s0-.1-.1-.1V30s0-.1-.1-.1v-.1s0-.1-.1-.1c0-.1-.1-.1-.1-.2v-.1l-.1-.1v-.1s0-.1-.1-.1V29s0-.1-.1-.1l-.1-.1-.1-.1s0-.1-.1-.1 0-.1-.1-.1c0 0 0-.1-.1-.1 0 0 0-.1-.1-.1 0 0 0-.1-.1-.1l-.1-.1-.1-.1-.1-.1s0-.1-.1-.1l-.1-.1s0-.1-.1-.1l.3.4-.1-.1v-.1l-.3-.3-.1-.1-.1-.1-.3-.3-.1-.1-.1-.1c-.1-.1-.3-.2-.4-.3l-.1-.1-.1-.1c-.1-.1-.3-.2-.4-.3l-.1-.1c-.3-.1-.5-.3-.8-.4-.1 0-.1-.1-.2-.1h1.4c.2 0 .4-.3.4-.6s-.2-.6-.4-.6h-.4c0-.1.1-.1.1-.2.4-.2 1.1-.7 1.8-1.7l.2-.2.2-.2s0-.1.1-.1c0 0 0-.1.1-.1 0 0 0-.1.1-.1 0 0 0-.1.1-.1 0 0 0-.1.1-.1 0 0 0-.1.1-.1 0 0 0-.1.1-.1 0 0 0-.1.1-.1 0 0 0-.1.1-.1 0 0 0-.1.1-.1 0 0 0-.1.1-.1v-.1s0-.1.1-.1v-.2c0-.1 0-.1.1-.2v-8.8c-2-10.7-13.2-9-13.2-9l.4 2.3-6.8 6.8.3 2.6 2.6 1.5c.1-.3.3-.5.4-.8 1.7-1.8 4.9-3.2 5.8-3.5.2-.1.3-.1.3-.1-4.4 5.4-3.9 11.6-3.7 13-.2 0-.4.3-.4.6s.2.6.4.6h1.4c-2.3.9-4.2 2.7-5.2 4.9-.1.2-.1.3-.2.5V31.9h-.6c-.1 0-.2 0-.3.1s-.2.1-.3.2c-.1.1-.1.2-.2.3 0 .1-.1.2-.1.3s0 .2.1.3c0 .1.1.2.2.3.1.1.2.1.3.2.1 0 .2.1.3.1h20c.1 0 .2 0 .3-.1.1 0 .2-.1.3-.2.1-.1.1-.2.2-.3s.1-.2.1-.3 0-.2-.1-.3-.1-.2-.2-.3c-.4-.1-.5-.2-.6-.2-.1 0-.2-.1-.3-.1zM91 31.9h-.6v-.5c0-.1 0-.1-.1-.2v-.5c0-.1 0-.1-.1-.2 0-.1 0-.1-.1-.2v-.1s0-.1-.1-.1V30s0-.1-.1-.1v-.1s0-.1-.1-.1c0-.1-.1-.1-.1-.2v-.1l-.1-.1v-.1s0-.1-.1-.1V29s0-.1-.1-.1l-.1-.1-.1-.1s0-.1-.1-.1 0-.1-.1-.1c0 0 0-.1-.1-.1 0 0 0-.1-.1-.1 0 0 0-.1-.1-.1l-.1-.1-.1-.1-.1-.1s0-.1-.1-.1l-.1-.1s0-.1-.1-.1l.3.4-.1-.1v-.1l-.3-.3-.1-.1-.1-.1-.3-.3-.1-.1-.1-.1c-.1-.1-.3-.2-.4-.3l-.1-.1-.1-.1c-.1-.1-.3-.2-.4-.3l-.1-.1c-.3-.1-.5-.3-.8-.4-.1 0-.1-.1-.2-.1h1.4c.2 0 .4-.3.4-.6s-.2-.6-.4-.6h-.4c0-.1.1-.1.1-.2.4-.2 1.1-.7 1.8-1.7l.2-.2.2-.2s0-.1.1-.1c0 0 0-.1.1-.1 0 0 0-.1.1-.1 0 0 0-.1.1-.1 0 0 0-.1.1-.1 0 0 0-.1.1-.1 0 0 0-.1.1-.1 0 0 0-.1.1-.1 0 0 0-.1.1-.1 0 0 0-.1.1-.1 0 0 0-.1.1-.1v-.1s0-.1.1-.1v-.2c0-.1 0-.1.1-.2v-8.8c-2-10.7-13.2-9-13.2-9l.4 2.3-6.8 6.8.3 2.6 2.6 1.5c.1-.3.3-.5.4-.8 1.7-1.8 4.9-3.2 5.8-3.5.2-.1.3-.1.3-.1-4.4 5.4-3.9 11.6-3.7 13-.2 0-.4.3-.4.6s.2.6.4.6h1.4c-2.3.9-4.2 2.7-5.2 4.9-.1.2-.1.3-.2.5V31.9H71c-.1 0-.2 0-.3.1s-.2.1-.3.2c-.1.1-.1.2-.2.3 0 .1-.1.2-.1.3s0 .2.1.3c0 .1.1.2.2.3.1.1.2.1.3.2.1 0 .2.1.3.1h20c.1 0 .2 0 .3-.1.1 0 .2-.1.3-.2.1-.1.1-.2.2-.3s.1-.2.1-.3 0-.2-.1-.3-.1-.2-.2-.3c-.1-.1-.2-.1-.3-.2-.1 0-.2-.1-.3-.1zM99.3 15V3.3h3V8h.8l3.6-4.6h3.3l-4.5 5.4 4.7 6.2h-3.5l-3.5-4.9h-.8V15h-3.1zm12.5.2h-.8v-2.6h.2c.2 0 .4 0 .6-.1.2-.1.3-.2.4-.4.1-.2.2-.5.3-.9.1-.4.2-.9.2-1.6V3.3h8.8V15h-3V5.8h-3v1.5c0 1.4-.1 2.6-.2 3.5-.1.9-.3 1.7-.5 2.3-.2.6-.5 1-.8 1.3-.3.3-.7.5-1.1.6-.2.2-.6.2-1.1.2zm14.5 0h-.7v-2.5h.6c.3 0 .6 0 .7-.1.2-.1.3-.1.4-.3.1-.1.2-.3.2-.5L123 3.3h3l3.1 5.9 2.4-5.9h2.9l-3.9 8.8c-.3.6-.5 1.1-.8 1.4-.2.4-.5.7-.8.9-.3.2-.7.4-1.1.5-.4.3-.9.3-1.5.3zm9.5-.2V3.3h8.6v2.5h-5.6v1.7h1.9c1.6 0 2.8.3 3.6 1 .8.7 1.2 1.5 1.2 2.6 0 1.2-.4 2.1-1.2 2.8-.8.7-2 1-3.6 1h-4.9zm3-2.5h1.6c.7 0 1.2-.1 1.5-.3.3-.2.4-.6.4-1s-.2-.7-.4-1c-.3-.2-.8-.4-1.5-.4h-1.6v2.7zM105.4 33v-4.6c-.3.2-.7.4-1.1.5-.5.1-1 .2-1.7.2-1.2 0-2.1-.3-2.7-.9-.6-.6-.9-1.6-.9-2.9v-3.9h3v3.4c0 .7.1 1.1.4 1.4.3.3.7.4 1.2.4s.8 0 1.1-.1c.3-.1.6-.2.8-.3v-4.7h3V33h-3.1zm5.3 0V21.3h8.5v2.3h-5.5v2.3h5v2.2h-5v2.6h5.5V33h-8.5zm13.5 0v-9.2h-3.6v-2.5h10.2v2.5h-3.6V33h-3zm8.1 0V21.3h3v3.9h1.4c1.6 0 2.8.3 3.6 1 .8.7 1.2 1.6 1.2 2.8s-.4 2.1-1.2 2.8c-.8.7-2 1-3.6 1h-4.4zm3-2.5h1.1c.7 0 1.2-.1 1.5-.4.3-.3.5-.6.5-1s-.2-.8-.5-1c-.3-.3-.8-.4-1.5-.4h-1.1v2.8zm7 2.5V21.3h3V33h-3zm5.3 0V21.3h4.7c1.1 0 2 .2 2.7.5.7.3 1.2.8 1.5 1.4.3.6.5 1.3.5 2.1s-.2 1.5-.5 2.1c-.3.6-.9 1.1-1.5 1.4-.7.3-1.6.5-2.7.5h-1.7V33h-3zm3-6.2h1.4c.8 0 1.3-.1 1.6-.4.3-.3.5-.6.5-1.1 0-.5-.2-.9-.5-1.1-.3-.3-.8-.4-1.6-.4h-1.4v3zm8.2 6.2V21.3h8.5v2.3h-5.5v2.3h5v2.2h-5v2.6h5.5V33h-8.5zm9.6 0 3.8-6.1-3.6-5.6h3.3l2.3 3.5 2.3-3.5h3.2l-3.6 5.5 3.8 6.1h-3.3l-2.4-4.1-2.4 4.1h-3.4zm17.3 0V21.3h3V26h.8l3.6-4.6h3.3l-4.5 5.4 4.7 6.2H193l-3.5-4.9h-.8V33h-3zm17.3.2c-.8 0-1.5-.1-2.2-.3-.7-.2-1.3-.6-1.8-1-.5-.5-.9-1.1-1.2-1.8-.3-.8-.4-1.7-.4-2.7v-.3c0-1 .1-1.9.4-2.6.3-.7.7-1.3 1.2-1.8s1.1-.8 1.8-1c.7-.2 1.4-.3 2.2-.3.8 0 1.5.1 2.2.3.7.2 1.3.6 1.8 1 .5.5.9 1.1 1.2 1.8.3.7.4 1.6.4 2.6v.3c0 1.1-.1 2-.4 2.7-.3.8-.7 1.4-1.2 1.8-.5.5-1.1.8-1.8 1-.7.2-1.4.3-2.2.3zm0-2.5c.5 0 .9-.1 1.3-.3.4-.2.7-.6.9-1 .2-.5.4-1.2.4-2.1V27c0-.9-.1-1.5-.4-2-.2-.5-.5-.8-.9-1-.4-.2-.8-.3-1.3-.3-.4 0-.8.1-1.2.3-.4.2-.7.5-.9 1-.2.5-.4 1.1-.4 2v.3c0 .9.1 1.6.4 2.1.2.5.6.8.9 1 .3.2.7.3 1.2.3zm7.5 2.3V21.3h3v4.4h4.3v-4.4h3V33h-3v-4.8h-4.3V33h-3zm12.7 0V21.3h8.5v2.3h-5.5v2.3h5v2.2h-5v2.6h5.5V33h-8.5zm10.4 0V21.3h3v7l4.6-7h2.7V33h-3v-7l-4.6 7h-2.7zm5.2-12.3c-.8 0-1.4-.1-1.9-.3-.5-.2-.8-.5-1.1-1-.2-.4-.3-.9-.3-1.6h2.4c0 .5.1.8.2.9.1.2.4.2.7.2.3 0 .6-.1.7-.2.1-.2.2-.5.2-.9h2.4c0 .6-.1 1.2-.4 1.6-.2.4-.6.7-1.1 1-.4.2-1 .3-1.8.3z"/></svg>